<svg width="53" height="48" viewBox="0 0 53 48" fill="none" xmlns="http://www.w3.org/2000/svg">
<path d="M42.2609 28.3428H10.2609V10.1062C10.2609 8.94469 11.1252 8 12.188 8H40.3338C41.3962 8 42.2609 8.94469 42.2609 10.1062V28.3428ZM10.972 27.5656H41.5498V10.1062C41.5498 9.37331 41.0043 8.7772 40.3338 8.7772H12.188C11.5174 8.7772 10.972 9.37331 10.972 10.1062V27.5656Z" fill="#331B3B"/>
<path d="M40.3338 33.1707H12.188C11.1252 33.1707 10.2609 32.2257 10.2609 31.0645V27.5656H42.2609V31.0645C42.2609 32.2257 41.3962 33.1707 40.3338 33.1707ZM10.972 28.3428V31.0645C10.972 31.7974 11.5174 32.3935 12.188 32.3935H40.3338C41.0043 32.3935 41.5498 31.7974 41.5498 31.0645V28.3428H10.972V28.3428Z" fill="#331B3B"/>
<path d="M31.1764 37.975H21.3453C21.1917 37.975 21.0555 37.8674 21.0075 37.7076C20.9595 37.5479 21.0111 37.3731 21.1348 37.2736C22.4852 36.1898 23.3865 34.534 23.6077 32.7309C23.6312 32.5381 23.7819 32.394 23.96 32.394H28.5609C28.7391 32.394 28.8898 32.5377 28.9133 32.7309C29.1344 34.5344 30.0361 36.1898 31.3865 37.2736C31.5106 37.3731 31.5618 37.5479 31.5138 37.7076C31.4658 37.8674 31.3303 37.975 31.1764 37.975ZM22.3096 37.1978H30.2125C29.2016 36.1097 28.5115 34.6964 28.2576 33.1708H24.264C24.0105 34.6964 23.3204 36.1097 22.3096 37.1978Z" fill="#331B3B"/>
<path d="M31.969 40H20.5528C19.8459 40 19.271 39.3716 19.271 38.5991C19.271 37.8266 19.8459 37.1982 20.5528 37.1982H31.969C32.6758 37.1982 33.2507 37.8266 33.2507 38.5991C33.2507 39.3716 32.6758 40 31.969 40ZM20.5528 37.975C20.2381 37.975 19.9821 38.2548 19.9821 38.5987C19.9821 38.9426 20.2381 39.2224 20.5528 39.2224H31.969C32.284 39.2224 32.5396 38.9426 32.5396 38.5987C32.5396 38.2548 32.2836 37.975 31.969 37.975H20.5528Z" fill="#331B3B"/>
<path d="M26.8657 30.7568H25.6561C25.4598 30.7568 25.3005 30.5831 25.3005 30.3682C25.3005 30.1533 25.4598 29.9796 25.6561 29.9796H26.8657C27.0623 29.9796 27.2212 30.1533 27.2212 30.3682C27.2212 30.5831 27.0623 30.7568 26.8657 30.7568Z" fill="#331B3B"/>
<path d="M23.1622 21.9515C21.9206 21.9515 21.563 20.7437 21.2753 19.7734C20.9809 18.7797 20.7676 18.1708 20.1151 18.1708C19.9189 18.1708 19.7596 17.9967 19.7596 17.7822C19.7596 17.5677 19.9189 17.3936 20.1151 17.3936C20.7676 17.3936 20.9813 16.7847 21.2757 15.791C21.5633 14.8203 21.921 13.6129 23.1626 13.6129C23.3589 13.6129 23.5182 13.787 23.5182 14.0015C23.5182 14.216 23.3589 14.3901 23.1626 14.3901C22.4732 14.3901 22.2534 15.0134 21.9523 16.0304C21.7706 16.644 21.5601 17.3536 21.1132 17.7822C21.5601 18.2108 21.7706 18.9204 21.9523 19.534C22.2534 20.551 22.4732 21.1743 23.1626 21.1743C23.3589 21.1743 23.5182 21.3484 23.5182 21.5629C23.5182 21.7774 23.3585 21.9515 23.1622 21.9515Z" fill="#331B3B"/>
<path d="M29.3595 21.9515C29.1629 21.9515 29.004 21.7774 29.004 21.5629C29.004 21.3484 29.1629 21.1743 29.3595 21.1743C30.0486 21.1743 30.2687 20.551 30.5698 19.5336C30.7515 18.9204 30.962 18.2104 31.4089 17.7822C30.9617 17.3536 30.7512 16.644 30.5698 16.0308C30.2683 15.0134 30.0486 14.3901 29.3595 14.3901C29.1629 14.3901 29.004 14.216 29.004 14.0015C29.004 13.787 29.1629 13.6129 29.3595 13.6129C30.6011 13.6129 30.9588 14.8207 31.2465 15.791C31.5409 16.7847 31.7542 17.3936 32.4066 17.3936C32.6032 17.3936 32.7622 17.5677 32.7622 17.7822C32.7622 17.9967 32.6032 18.1708 32.4066 18.1708C31.7542 18.1708 31.5405 18.7797 31.2461 19.7734C30.9588 20.7437 30.6011 21.9515 29.3595 21.9515Z" fill="#331B3B"/>
<path d="M24.8632 22.8542C24.8258 22.8542 24.7878 22.8476 24.7501 22.834C24.5641 22.7656 24.4635 22.5453 24.5261 22.342L27.399 12.9756C27.4616 12.7724 27.6632 12.6628 27.8491 12.7308C28.0354 12.7992 28.136 13.0195 28.0735 13.2228L25.2006 22.5892C25.1504 22.7512 25.0118 22.8542 24.8632 22.8542Z" fill="#331B3B"/>
</svg>
