<svg fill="none" height="498" viewBox="0 0 478 498" width="478" xmlns="http://www.w3.org/2000/svg"><path clip-rule="evenodd" d="m531.99 221.619-2-.019c.007-.66.01-1.319.01-1.978 0-.672-.003-1.344-.01-2.014l2-.02c.007.677.01 1.355.01 2.034 0 .666-.003 1.332-.01 1.997zm-.082-8.077-1.999.061c-.04-1.329-.094-2.653-.161-3.972l1.998-.101c.067 1.332.121 2.669.162 4.012zm-.407-8.022-1.995.143c-.095-1.337-.204-2.668-.327-3.993l1.992-.184c.123 1.339.234 2.684.33 4.034zm-.743-8.033c-.151-1.334-.317-2.662-.496-3.983l-1.982.268c.177 1.308.341 2.621.491 3.941zm-1.081-7.987c-.209-1.329-.432-2.651-.668-3.968l-1.969.354c.234 1.302.454 2.61.661 3.925zm-1.42-7.911-1.961.396c-.264-1.311-.543-2.614-.834-3.912l1.951-.439c.295 1.312.576 2.63.844 3.955zm-1.77-7.871-1.941.481c-.32-1.288-.653-2.57-.999-3.846l1.93-.524c.35 1.29.687 2.586 1.01 3.889zm-2.112-7.776-1.918.567c-.376-1.275-.766-2.543-1.169-3.805l1.905-.609c.407 1.276.802 2.558 1.182 3.847zm-2.448-7.664-1.892.651c-.433-1.26-.88-2.514-1.34-3.76l1.876-.693c.465 1.261.917 2.528 1.356 3.802zm-2.79-7.562-1.861.733c-.487-1.236-.987-2.465-1.5-3.687l1.844-.774c.519 1.236 1.024 2.478 1.517 3.728zm-3.118-7.429-1.827.814c-.541-1.214-1.095-2.42-1.661-3.62l1.809-.853c.572 1.212 1.132 2.432 1.679 3.659zm-3.438-7.282-1.789.893c-.594-1.19-1.2-2.373-1.818-3.549l1.77-.931c.625 1.189 1.238 2.384 1.837 3.587zm-3.75-7.131-1.75.969c-.643-1.162-1.299-2.318-1.966-3.466l1.729-1.005c.674 1.16 1.337 2.328 1.987 3.502zm-4.049-6.963-1.708 1.041c-.692-1.134-1.396-2.262-2.111-3.382l1.685-1.077c.723 1.132 1.435 2.271 2.134 3.418zm-4.337-6.789-1.663 1.111c-.738-1.104-1.488-2.202-2.249-3.292l1.64-1.145c.769 1.102 1.526 2.21 2.272 3.326zm-4.612-6.607-1.617 1.178c-.782-1.074-1.575-2.14-2.379-3.199l1.593-1.209c.812 1.069 1.613 2.146 2.403 3.23zm-4.87-6.414-1.569 1.241c-.825-1.044-1.661-2.08-2.508-3.109l1.545-1.2703c.854 1.0383 1.699 2.0853 2.532 3.1383zm-5.119-6.2207-1.519 1.3001c-.864-1.0097-1.738-2.0122-2.623-3.0073l1.495-1.3286c.893 1.0045 1.775 2.0164 2.647 3.0358zm-5.355-6.0266-1.47 1.3562c-.9-.9752-1.81-1.943-2.729-2.9036l1.444-1.383c.928.9694 1.846 1.9461 2.755 2.9304zm-5.566-5.815c-.947-.954-1.904-1.9004-2.87-2.8394l-1.394 1.4341c.958.9307 1.906 1.8687 2.844 2.8142zm-5.776-5.6158-1.369 1.4583c-.97-.91-1.948-1.8127-2.936-2.7081l1.343-1.4817c.996.903 1.984 1.8135 2.962 2.7315zm-5.976-5.4168c-1.006-.8817-2.022-1.7559-3.045-2.6226l-1.293 1.5265c1.016.8595 2.022 1.7264 3.021 2.6006zm-6.142-5.2004-1.267 1.5476c-1.032-.8442-2.071-1.681-3.119-2.5105l1.241-1.5682c1.056.8362 2.105 1.6799 3.145 2.5311zm-6.316-5.0001c-1.065-.8155-2.138-1.6236-3.219-2.4243l-1.191 1.607c1.073.7944 2.137 1.5962 3.194 2.4053zm-6.482-4.802-1.165 1.6255c-1.079-.7735-2.165-1.5398-3.259-2.2987l1.14-1.6431c1.102.7647 2.197 1.5368 3.284 2.3163zm-6.612-4.5883-1.115 1.6603c-1.107-.7437-2.222-1.4802-3.343-2.2093l1.09-1.6768c1.13.7345 2.253 1.4765 3.368 2.2258zm-6.754-4.3911-1.065 1.6927c-1.127-.7092-2.261-1.4111-3.401-2.1057l1.041-1.7081c1.148.6996 2.29 1.4067 3.425 2.1211zm-6.889-4.1971c-1.153-.6794-2.311-1.3515-3.476-2.0162l-.992 1.7371c1.157.6601 2.308 1.3274 3.452 2.002zm-6.989-3.9883-.967 1.7507c-1.169-.6455-2.344-1.2837-3.525-1.9147l.943-1.764c1.189.6353 2.372 1.2779 3.549 1.928zm-7.107-3.7976-.918 1.7767c-1.183-.6116-2.372-1.216-3.567-1.8131l.895-1.7889c1.202.6011 2.399 1.2096 3.59 1.8253zm-7.214-3.6066-.87 1.8007c-1.197-.5788-2.4-1.1504-3.608-1.7147l.847-1.812c1.215.568 2.426 1.1434 3.631 1.726zm-7.291-3.4068-.823 1.8229c-1.217-.5494-2.439-1.0915-3.666-1.6264l.8-1.8333c1.234.5383 2.464 1.0839 3.689 1.6368zm-7.388-3.2213-.776 1.8434c-1.227-.5168-2.46-1.0263-3.697-1.5286l.753-1.8531c1.244.5055 2.485 1.0183 3.72 1.5383zm-7.468-3.0328-.729 1.8623c-1.241-.4858-2.486-.9645-3.735-1.4359l.706-1.8712c1.257.4743 2.51.9559 3.758 1.4448zm-7.533-2.8427-.683 1.8798c-1.254-.4559-2.513-.9046-3.776-1.346l.661-1.888c1.27.4441 2.536.8955 3.798 1.3542zm-7.61-2.6609-.637 1.8957c-1.263-.4244-2.529-.8417-3.799-1.2517l.614-1.9033c1.278.4125 2.552.8323 3.822 1.2593zm-7.666-2.475-.591 1.9105c-1.276-.395-2.554-.7827-3.836-1.1632l.569-1.9173c1.29.3827 2.576.7727 3.858 1.17zm-7.722-2.2923-.546 1.9239c-1.284-.3647-2.571-.7222-3.861-1.0724l.524-1.9301c1.298.3522 2.592.7118 3.883 1.0786zm-7.781-2.113-.502 1.9361c-1.29-.3342-2.583-.6612-3.878-.9809l.479-1.9417c1.303.3216 2.603.6504 3.901.9865zm-7.818-1.92944-.457 1.94714c-1.3-.3053-2.604-.6033-3.91-.894l.435-1.95222c1.313.29237 2.624.59207 3.932.89908zm-7.865-1.75127-.413 1.95703c-1.305-.27512-2.613-.54298-3.923-.80356l.39-1.96158c1.318.26206 2.633.53144 3.946.80811zm-7.905-1.57228-.368 1.96586c-1.311-.24547-2.625-.48366-3.94-.71456l.346-1.96988c1.322.23219 2.643.47173 3.962.71858zm-7.933-1.39251-.323 1.97364c-1.318-.21609-2.638-.42487-3.959-.62633l.301-1.97715c1.329.20258 2.656.41254 3.981.62984zm-7.967-1.2148-.279 1.9804c-1.322-.18633-2.645-.36534-3.969-.53701l.257-1.98341c1.332.17263 2.662.35265 3.991.54002zm-7.99-1.03572-.234 1.98615c-1.327-.1569-2.654-.30643-3.983-.44858l.213-1.98866c1.336.14295 2.671.29332 4.004.45109zm-8.011-.8571-.19 1.9909c-1.329-.1272-2.66-.24702-3.991-.35942l.169-1.99291c1.338.11303 2.676.23351 4.012.36143zm-8.03-.67814-.146 1.99466c-1.331-.09745-2.663-.18748-3.996-.27007l.124-1.996169c1.34.083048 2.679.173582 4.018.271579zm-8.04-.498238-.102 1.997428c-1.334-.06767-2.668-.12788-4.003-.18059l.079-1.99844c1.343.053008 2.684.11355 4.026.181602zm-8.052-.317968-.056 1.999206c-1.335-.0377-2.67-.06788-4.005-.09053l.034-1.9997168c1.342.0227794 2.685.0531338 4.027.0910408zm-8.056-.1366292-.011 1.9999652c-.668-.00378-1.335-.00567-2.003-.00567-.669 0-1.337.00258-2.004.00774l-.016-1.99994228c.673-.00519527 1.346-.00779772 2.02-.00779772.672 0 1.343.00190259 2.014.0057048zm-8.062.064301.047 1.9994642c-1.33.03082-2.657.07185-3.982.12302l-.077-1.998511c1.335-.051567 2.672-.092917 4.012-.1239732zm-8.02.3098672.108 1.997077c-1.333.07219-2.664.15467-3.992.24734l-.139-1.995144c1.338-.093397 2.679-.176515 4.023-.249273zm-8.029.560226.171 1.992731c-1.323.11307-2.643.23627-3.96.36952l-.201-1.98984c1.327-.1343 2.657-.25846 3.99-.372411zm-7.998.809831.233 1.98643c-1.323.15485-2.642.31985-3.958.49493l-.264-1.98253c1.327-.17646 2.656-.34276 3.989-.49883zm-7.958 1.05859.295 1.97815c-1.32.19667-2.636.40349-3.949.62037l-.326-1.97325c1.323-.2186 2.65-.42705 3.98-.62527zm-7.943 1.31205.357 1.96786c-1.307.23716-2.61.48431-3.91.74139l-.388-1.96199c1.31-.25911 2.624-.50823 3.941-.74726zm-7.883 1.5594.419 1.9556c-1.302.27908-2.601.56815-3.895.86712l-.45-1.94872c1.305-.30134 2.614-.5927 3.926-.874zm-7.829 1.80788.48 1.94136c-1.292.32008-2.581.65009-3.865.98989l-.512-1.93351c1.295-.3425 2.594-.67511 3.897-.99774zm-7.778 2.05752.542 1.92513c-1.279.3603-2.554.7303-3.825 1.1101l-.573-1.9163c1.281-.3828 2.567-.75579 3.856-1.11893zm-7.698 2.30043.603 1.9069c-1.27.4015-2.536.8127-3.797 1.2336l-.633-1.8971c1.271-.4242 2.547-.8387 3.827-1.2434zm-7.626 2.5451.663 1.8868c-1.255.4411-2.505.8918-3.751 1.352l-.693-1.876c1.255-.4639 2.516-.9182 3.781-1.3628zm-7.544 2.7871.723 1.8648c-1.24.4806-2.475.9706-3.705 1.4699l-.752-1.8531c1.24-.5033 2.484-.9972 3.734-1.4816zm-7.445 3.0229.782 1.8408c-1.226.5205-2.446 1.0503-3.662 1.5894l-.811-1.8282c1.225-.5434 2.456-1.0774 3.691-1.602zm-7.35 3.2601.84 1.8151c-1.207.5584-2.409 1.126-3.605 1.7027l-.868-1.8016c1.205-.5813 2.416-1.1534 3.633-1.7162zm-7.243 3.4922.897 1.7875c-1.188.5964-2.371 1.2019-3.549 1.8164l-.925-1.7731c1.187-.6193 2.379-1.2296 3.577-1.8308zm-7.124 3.7181.953 1.7582c-1.17.6345-2.334 1.278-3.493 1.9303l-.981-1.7427c1.168-.6576 2.341-1.3062 3.521-1.9458zm-7.007 3.9451 1.009 1.7269c-1.148.6706-2.29 1.3499-3.426 2.0379l-1.036-1.7107c1.145-.6935 2.296-1.3783 3.453-2.0541zm-6.877 4.165 1.063 1.6941c-1.126.7067-2.246 1.4221-3.36 2.146l-1.09-1.6769c1.123-.7297 2.252-1.4508 3.387-2.1632zm-6.739 4.3794 1.116 1.6595c-1.104.7427-2.201 1.4938-3.293 2.2534l-1.142-1.6416c1.1-.7656 2.206-1.5227 3.319-2.2713zm-6.6 4.5933 1.169 1.6232c-1.079.7767-2.152 1.5616-3.217 2.3547l-1.194-1.6044c1.074-.7995 2.155-1.5907 3.242-2.3735zm-6.4494 4.8 1.2194 1.5852c-1.0539.8106-2.101 1.6294-3.1413 2.4561l-1.2443-1.5657c1.0485-.8333 2.104-1.6586 3.1662-2.4756zm-6.2924 5.0009c-1.0363.8507-2.0655 1.7095-3.0876 2.5762l1.2935 1.5254c1.014-.8598 2.0351-1.7118 3.0631-2.5558zm-6.1324 5.2 1.3175 1.5046c-1.0001.8758-1.993 1.7593-2.9787 2.6505l-1.3413-1.4836c.9935-.8983 1.9944-1.7888 3.0025-2.6715zm-5.9635 5.3917 1.3648 1.462c-.9719.9072-1.9363 1.822-2.8933 2.7442l-1.3879-1.4401c.9647-.9296 1.9368-1.8517 2.9164-2.7661zm-5.7881 5.5781 1.4106 1.4178c-.9426.9378-1.8777 1.883-2.805 2.8355l-1.433-1.3952c.9347-.9601 1.8772-1.9128 2.8274-2.8581zm-5.6084 5.7605 1.4551 1.3722c-.912.9671-1.8162 1.9414-2.7126 2.9228l-1.4767-1.3487c.9035-.9893 1.8149-1.9714 2.7342-2.9463zm-5.4214 5.9362c-.8877 1.0037-1.7673 2.0145-2.6389 3.0323l1.5192 1.3009c.8646-1.0098 1.7373-2.0125 2.6179-3.0083zm-5.2289 6.1064 1.5398 1.2764c-.8482 1.0233-1.6883 2.0534-2.5201 3.0902l-1.56-1.2515c.8385-1.0452 1.6853-2.0836 2.5403-3.1151zm-5.0306 6.2708 1.5799 1.2263c-.815 1.05-1.6217 2.107-2.4199 3.17l-1.5994-1.201c.8047-1.0717 1.6178-2.1369 2.4394-3.1953zm-4.8265 6.4283 1.6185 1.175c-.7809 1.076-1.5532 2.158-2.3168 3.246l-1.6372-1.148c.7698-1.098 1.5484-2.188 2.3355-3.273zm-4.618 6.582 1.6555 1.122c-.7454 1.1-1.4821 2.206-2.21 3.318l-1.6734-1.096c.7338-1.121 1.4765-2.235 2.2279-3.344zm-4.4025 6.726 1.6909 1.068c-.7098 1.124-1.4107 2.253-2.1025 3.389l-1.708-1.041c.6975-1.144 1.4041-2.283 2.1196-3.416zm-4.1824 6.864 1.7246 1.013c-.673 1.146-1.337 2.298-1.9917 3.456l-1.7408-.985c.6601-1.167 1.3294-2.328 2.0079-3.484zm-3.959 6.999 1.7565.957c-.6349 1.166-1.2605 2.338-1.8769 3.515l-1.7718-.928c.6213-1.187 1.2521-2.368 1.8922-3.544zm-3.7281 7.122 1.7868.898c-.5971 1.187-1.1848 2.38-1.763 3.578l-1.8011-.869c.5829-1.208 1.1754-2.41 1.7773-3.607zm-3.4938 7.238 1.8151.84c-.5579 1.206-1.1064 2.417-1.6451 3.633l-1.8287-.81c.5432-1.226 1.0962-2.447 1.6587-3.663zm-3.2574 7.353 1.8416.78c-.5175 1.222-1.0253 2.449-1.5234 3.681l-1.8541-.75c.5021-1.242 1.0142-2.479 1.5359-3.711zm-3.0128 7.451 1.8662.72c-.478 1.24-.946 2.484-1.4042 3.734l-1.8777-.689c.4619-1.259.9338-2.514 1.4157-3.765zm-2.767 7.546 1.8888.658c-.4368 1.254-.8637 2.513-1.2805 3.777l-1.8993-.626c.4202-1.274.8506-2.544 1.291-3.809zm-2.5199 7.64 1.9094.595c-.3946 1.266-.7791 2.536-1.1534 3.81l-1.91895-.564c.37745-1.284.76515-2.565 1.16295-3.841zm-2.26459 7.709 1.92789.532c-.3537 1.281-.6972 2.567-1.03035 3.857l-1.93643-.5c.33595-1.301.68227-2.597 1.03889-3.889zm-2.01053 7.781 1.94438.469c-.31098 1.291-.61169 2.586-.90203 3.884l-1.95182-.436c.29273-1.31.59592-2.615.90947-3.917zm-1.75582 7.855 1.95874.404c-.2676 1.297-.52489 2.597-.77179 3.902l-1.9651-.372c.24893-1.315.50835-2.627.77815-3.934zm-1.49341 7.889c-.22788 1.323-.44518 2.648-.65183 3.978l1.97626.307c.20496-1.319.42049-2.633.64651-3.945zm-1.23529 7.944c-.18389 1.325-.35721 2.653-.51987 3.985l1.98524.242c.16134-1.321.33325-2.638.51565-3.952zm-.97579 7.989 1.98895.21c-.13901 1.317-.26753 2.636-.38547 3.959l-1.992098-.178c.118908-1.333.248478-2.664.388618-3.991zm-.712841 7.995 1.994721.145c-.0966 1.327-.18258 2.657-.25784 3.989l-1.996819-.113c.075876-1.343.16255-2.683.259938-4.021zm-.453907 8.03 1.998378.081c-.05335 1.324-.09613 2.65-.12826 3.98l-1.9994179-.049c.0323919-1.34.0755189-2.677.1292999-4.012zm-.19418644 8.04 1.99993444.016c-.00538.668-.00807 1.335-.00807 2.004 0 .668.00269 1.336.00807 2.003l-1.99993678.017c-.00541875-.673-.00813322-1.346-.00813322-2.02s.00271525-1.347.00813556-2.02zm.06488024 8.067 1.9994142-.048c.03213 1.329.07491 2.656.12826 3.98l-1.998378.08c-.05378-1.334-.096906-2.672-.1292962-4.012zm.3232612 8.021 1.996813-.112c.07527 1.332.16124 2.662.25784 3.988l-1.994718.146c-.097387-1.338-.18406-2.678-.259935-4.022zm.584155 8.025 1.992098-.177c.11794 1.322.24646 2.642.38546 3.959l-1.98894.21c-.14015-1.328-.26971-2.658-.388618-3.992zm.844528 7.996 1.98525-.242c.16134 1.32.33324 2.638.51564 3.952l-1.98102.275c-.18389-1.325-.35721-2.653-.51987-3.985zm1.10333 7.951 1.97626-.307c.20496 1.318.4205 2.633.64651 3.945l-1.97094.339c-.22788-1.322-.44519-2.648-.65183-3.977zm1.36709 7.933 1.9651-.372c.2469 1.304.5042 2.605.7718 3.902l-1.95875.404c-.2698-1.307-.52922-2.619-.77815-3.934zm1.6245 7.872 1.95182-.436c.29034 1.298.59105 2.593.90203 3.884l-1.94438.469c-.31355-1.302-.61674-2.608-.90947-3.917zm1.88111 7.809 1.93643-.5c.33318 1.29.67668 2.576 1.03038 3.857l-1.92792.532c-.35662-1.292-.70294-2.588-1.03889-3.889zm2.14054 7.757 1.91887-.564c.3744 1.274.7589 2.544 1.1535 3.81l-1.9094.595c-.3978-1.276-.7855-2.557-1.16297-3.841zm2.39187 7.672 1.8993-.626c.4168 1.264.8437 2.523 1.2805 3.777l-1.8888.658c-.4404-1.265-.8708-2.535-1.291-3.809zm2.6422 7.59 1.8778-.689c.4581 1.25.9262 2.494 1.4042 3.734l-1.8662.72c-.4819-1.251-.9538-2.506-1.4158-3.765zm2.8927 7.505 1.8541-.75c.4981 1.232 1.0059 2.459 1.5235 3.681l-1.8417.78c-.5217-1.232-1.0338-2.469-1.5359-3.711zm3.1347 7.401 1.8286-.81c.5387 1.216 1.0872 2.427 1.6452 3.633l-1.8152.84c-.5625-1.216-1.1154-2.437-1.6586-3.663zm3.3751 7.294 1.8012-.869c.5782 1.198 1.1658 2.391 1.7629 3.578l-1.7867.898c-.602-1.197-1.1945-2.399-1.7774-3.607zm3.6132 7.185 1.7719-.928c.6163 1.177 1.242 2.349 1.8769 3.515l-1.7566.957c-.6401-1.176-1.2708-2.357-1.8922-3.544zm3.8433 7.059 1.7408-.984c.6548 1.157 1.3187 2.309 1.9918 3.455l-1.7246 1.013c-.6785-1.156-1.3479-2.317-2.008-3.484zm4.0708 6.932 1.7079-1.041c.6919 1.136 1.3928 2.265 2.1026 3.389l-1.6909 1.068c-.7155-1.133-1.4221-2.271-2.1196-3.416zm4.2942 6.798 1.6734-1.096c.7279 1.112 1.4646 2.218 2.21 3.318l-1.6555 1.122c-.7514-1.108-1.4941-2.223-2.2279-3.344zm4.5104 6.654 1.6372-1.149c.7636 1.088 1.5359 2.17 2.3168 3.246l-1.6185 1.175c-.7872-1.084-1.5657-2.175-2.3355-3.272zm4.7226 6.505c.8047 1.072 1.6178 2.137 2.4394 3.195l1.5799-1.226c-.815-1.05-1.6217-2.107-2.4199-3.17zm4.9297 6.351 1.56-1.251c.8318 1.036 1.6719 2.067 2.5201 3.09l-1.5398 1.276c-.855-1.031-1.7018-2.07-2.5403-3.115zm5.1303 6.189 1.5192-1.301c.8646 1.01 1.7373 2.013 2.6179 3.009l-1.4982 1.325c-.8877-1.004-1.7673-2.015-2.6389-3.033zm5.3261 6.023 1.4768-1.349c.8963.981 1.8005 1.956 2.7125 2.923l-1.4551 1.372c-.9193-.975-1.8307-1.957-2.7342-2.946zm5.5152 5.848 1.433-1.395c.9274.953 1.8624 1.898 2.805 2.835l-1.4106 1.418c-.9502-.945-1.8927-1.898-2.8274-2.858zm5.6992 5.67 1.3878-1.44c.957.922 1.9214 1.837 2.8933 2.744l-1.3648 1.462c-.9795-.914-1.9517-1.836-2.9163-2.766zm5.8773 5.487 1.3413-1.484c.9857.891 1.9786 1.775 2.9787 2.65l-1.3175 1.505c-1.0081-.883-2.009-1.773-3.0025-2.671zm6.0473 5.295 1.2935-1.525c1.0141.859 2.0351 1.711 3.0632 2.555l-1.2691 1.546c-1.0362-.851-2.0655-1.709-3.0876-2.576zm6.2138 5.101 1.2443-1.565c1.0403.826 2.0874 1.645 3.1413 2.456l-1.2194 1.585c-1.0622-.817-2.1177-1.642-3.1662-2.476zm6.3735 4.903 1.194-1.605c1.066.793 2.138 1.578 3.217 2.355l-1.169 1.623c-1.087-.783-2.168-1.574-3.242-2.373zm6.523 4.695c1.1.766 2.206 1.523 3.319 2.271l1.116-1.659c-1.104-.743-2.201-1.494-3.293-2.254zm6.671 4.488 1.09-1.677c1.114.723 2.234 1.439 3.36 2.146l-1.063 1.694c-1.135-.713-2.264-1.434-3.387-2.163zm6.811 4.274 1.036-1.711c1.136.688 2.278 1.367 3.426 2.038l-1.009 1.727c-1.157-.676-2.308-1.361-3.453-2.054zm6.939 4.053.981-1.743c1.159.653 2.323 1.296 3.493 1.931l-.953 1.758c-1.179-.64-2.353-1.288-3.521-1.946zm7.068 3.833.925-1.773c1.178.614 2.361 1.22 3.549 1.816l-.897 1.788c-1.198-.601-2.39-1.212-3.577-1.831zm7.187 3.607.868-1.802c1.196.577 2.398 1.145 3.605 1.703l-.84 1.815c-1.217-.563-2.428-1.135-3.633-1.716zm7.292 3.374.811-1.828c1.216.539 2.436 1.069 3.662 1.589l-.782 1.841c-1.235-.524-2.466-1.058-3.691-1.602zm7.402 3.143.752-1.853c1.23.5 2.465.99 3.705 1.47l-.723 1.865c-1.25-.484-2.494-.978-3.734-1.482zm7.497 2.906.693-1.876c1.246.46 2.496.911 3.751 1.352l-.663 1.887c-1.265-.445-2.526-.899-3.781-1.363zm7.58 2.665.633-1.897c1.261.421 2.527.832 3.796 1.233l-.602 1.907c-1.28-.404-2.556-.819-3.827-1.243zm7.669 2.425.573-1.917c1.271.38 2.546.75 3.825 1.11l-.542 1.926c-1.29-.364-2.575-.737-3.856-1.119zm7.737 2.178.512-1.933c1.284.34 2.573.67 3.865.99l-.481 1.941c-1.302-.323-2.601-.655-3.896-.998zm7.8 1.932.45-1.949c1.294.299 2.593.588 3.895.867l-.419 1.956c-1.313-.281-2.621-.573-3.926-.874zm7.868 1.686.388-1.962c1.3.257 2.603.504 3.91.742l-.357 1.967c-1.317-.239-2.631-.488-3.941-.747zm7.904 1.434.326-1.973c1.312.217 2.629.424 3.948.62l-.294 1.978c-1.331-.198-2.657-.406-3.98-.625zm7.949 1.185.264-1.982c1.316.175 2.635.34 3.957.495l-.232 1.986c-1.333-.156-2.663-.322-3.989-.499zm7.997.936.201-1.989c1.317.133 2.637.256 3.96.369l-.171 1.993c-1.333-.114-2.663-.238-3.99-.373zm7.996.684.139-1.995c1.328.092 2.658.175 3.992.247l-.108 1.997c-1.344-.073-2.685-.156-4.023-.249zm8.031.435.077-1.999c1.324.052 2.652.093 3.981.124l-.046 1.999c-1.34-.031-2.677-.072-4.012-.124zm8.04.186.016-2c.667.005 1.335.008 2.004.008.66 0 1.319-.003 1.978-.01l.02 2c-.666.007-1.332.01-1.998.01-.674 0-1.347-.003-2.02-.008zm8.012-.078-.057-1.999c1.319-.038 2.638-.089 3.956-.152l.096 1.998c-1.332.064-2.663.114-3.995.153zm7.985-.38c1.328-.089 2.655-.189 3.982-.302l-.169-1.993c-1.315.112-2.63.212-3.945.299zm7.961-.677-.205-1.989c1.313-.136 2.627-.284 3.939-.443l.242 1.985c-1.325.161-2.65.31-3.976.447zm7.934-.964-.277-1.981c1.306-.183 2.612-.377 3.917-.583l.311 1.976c-1.316.207-2.633.403-3.951.588zm7.898-1.246-.346-1.97c1.299-.228 2.597-.468 3.893-.719l.38 1.964c-1.308.253-2.617.495-3.927.725zm7.841-1.516-.412-1.957c1.292-.273 2.583-.557 3.873-.852l.446 1.95c-1.301.297-2.603.584-3.907.859zm7.797-1.782-.478-1.942c1.281-.315 2.559-.64 3.836-.977l.51 1.934c-1.288.339-2.577.668-3.868.985zm7.725-2.034-.54-1.925c1.274-.358 2.546-.725 3.816-1.104l.571 1.917c-1.281.381-2.563.752-3.847 1.112zm7.66-2.28-.601-1.908c1.26-.396 2.517-.803 3.773-1.22l.63 1.898c-1.265.42-2.533.83-3.802 1.23zm7.591-2.52-.659-1.888c1.246-.435 2.49-.88 3.731-1.334l.688 1.878c-1.251.458-2.505.906-3.76 1.344zm7.499-2.744-.715-1.868c1.235-.473 2.467-.956 3.697-1.448l.743 1.857c-1.239.496-2.481.982-3.725 1.459zm7.427-2.971-.769-1.846c1.218-.508 2.433-1.025 3.645-1.551l.796 1.835c-1.221.53-2.445 1.051-3.672 1.562zm7.328-3.179c1.216-.548 2.429-1.106 3.639-1.672l-.848-1.811c-1.202.562-2.406 1.115-3.613 1.66zm7.24-3.388c1.198-.58 2.392-1.17 3.583-1.767l-.898-1.788c-1.182.594-2.368 1.179-3.557 1.756zm7.146-3.587c1.182-.613 2.36-1.235 3.534-1.865l-.945-1.763c-1.167.626-2.337 1.244-3.51 1.853zm7.04-3.776-.969-1.75c1.158-.64 2.312-1.289 3.462-1.946l.992 1.736c-1.158.662-2.32 1.315-3.485 1.96zm6.947-3.967-1.014-1.724c1.138-.669 2.273-1.347 3.404-2.033l1.036 1.711c-1.138.69-2.28 1.372-3.426 2.046zm6.83-4.14-1.059-1.697c1.124-.701 2.244-1.409 3.36-2.125l1.08 1.683c-1.123.721-2.25 1.434-3.381 2.139zm6.729-4.318c1.111-.733 2.217-1.473 3.32-2.221l-1.122-1.655c-1.096.743-2.196 1.478-3.299 2.207zm6.615-4.485-1.142-1.641c1.086-.757 2.169-1.521 3.247-2.292l1.163 1.627c-1.085.776-2.174 1.545-3.268 2.306zm6.502-4.648-1.183-1.613c1.067-.783 2.129-1.572 3.188-2.369l1.203 1.598c-1.065.801-2.134 1.596-3.208 2.384zm6.388-4.809-1.222-1.583c1.047-.809 2.09-1.624 3.128-2.446l1.241 1.568c-1.044.827-2.093 1.647-3.147 2.461zm6.265-4.96-1.26-1.553c1.028-.834 2.051-1.675 3.07-2.522l1.279 1.537c-1.025.853-2.055 1.699-3.089 2.538zm6.147-5.112-1.297-1.523c1.007-.858 2.009-1.723 3.007-2.593l1.315 1.506c-1.003.876-2.012 1.746-3.025 2.61zm6.02-5.256-1.334-1.491c.988-.883 1.97-1.772 2.947-2.667l1.351 1.475c-.983.9-1.971 1.794-2.964 2.683zm5.894-5.4-1.368-1.459c.965-.906 1.926-1.817 2.881-2.735l1.385 1.442c-.96.923-1.926 1.84-2.898 2.752zm5.764-5.538-1.403-1.425c.944-.929 1.883-1.864 2.816-2.804l1.419 1.409c-.938.946-1.882 1.886-2.832 2.82zm5.631-5.673-1.436-1.392c.922-.951 1.838-1.908 2.748-2.869l1.452 1.375c-.915.967-1.837 1.929-2.764 2.886zm5.493-5.804-1.468-1.358c.899-.973 1.792-1.951 2.68-2.935l1.484 1.34c-.892.989-1.791 1.974-2.696 2.953zm5.357-5.936-1.501-1.322c.875-.994 1.744-1.993 2.607-2.996l1.516 1.304c-.868 1.009-1.742 2.014-2.622 3.014zm5.21-6.06-1.532-1.285c.852-1.016 1.697-2.036 2.537-3.06l1.547 1.267c-.844 1.031-1.695 2.057-2.552 3.078zm5.065-6.185-1.563-1.248c.826-1.034 1.646-2.073 2.459-3.116l1.577 1.229c-.818 1.05-1.642 2.095-2.473 3.135zm4.913-6.305-1.593-1.21c.802-1.055 1.597-2.115 2.385-3.178l1.607 1.19c-.793 1.07-1.593 2.136-2.399 3.198zm4.756-6.422-1.622-1.17c.775-1.074 1.544-2.153 2.305-3.235l1.636 1.15c-.766 1.089-1.539 2.174-2.319 3.255zm4.599-6.542-1.65-1.129c.748-1.093 1.488-2.19 2.222-3.29l1.664 1.109c-.738 1.107-1.483 2.211-2.236 3.31zm4.428-6.645-1.679-1.088c.722-1.113 1.436-2.231 2.143-3.352l1.692 1.067c-.711 1.128-1.43 2.252-2.156 3.373zm4.265-6.769-1.705-1.044c.69-1.129 1.374-2.26 2.049-3.396l1.719 1.023c-.68 1.142-1.367 2.281-2.063 3.417zm4.084-6.867-1.732-1c.662-1.148 1.317-2.3 1.963-3.455l1.746.977c-.651 1.162-1.31 2.322-1.977 3.478zm3.904-6.976-1.758-.954c.63-1.162 1.252-2.328 1.866-3.497l1.771.929c-.618 1.177-1.244 2.351-1.879 3.522zm3.716-7.079-1.783-.906c.599-1.181 1.19-2.364 1.772-3.551l1.796.881c-.586 1.195-1.181 2.387-1.785 3.576zm3.517-7.169-1.808-.856c.567-1.199 1.126-2.4 1.675-3.604l1.82.83c-.554 1.213-1.116 2.423-1.687 3.63zm3.321-7.28-1.831-.804c.532-1.211 1.054-2.424 1.568-3.64l1.842.778c-.517 1.225-1.043 2.447-1.579 3.666zm3.106-7.358-1.853-.751c.498-1.229.986-2.46 1.464-3.693l1.865.724c-.482 1.242-.974 2.482-1.476 3.72zm2.893-7.455-1.875-.695c.459-1.239.909-2.48 1.348-3.722l1.886.667c-.443 1.252-.896 2.502-1.359 3.75zm2.666-7.536-1.896-.638c.423-1.254.835-2.51 1.236-3.768l1.906.608c-.405 1.268-.821 2.534-1.246 3.798zm2.429-7.607-1.914-.578c.383-1.268.756-2.538 1.118-3.809l1.923.547c-.365 1.282-.74 2.562-1.127 3.84zm2.191-7.695-1.932-.516c.341-1.276.672-2.554.991-3.833l1.941.485c-.322 1.29-.656 2.578-1 3.864zm1.936-7.749-1.948-.452c.299-1.29.588-2.58.865-3.872l1.955.419c-.279 1.303-.57 2.605-.872 3.905zm1.677-7.817-1.963-.386c.255-1.295.498-2.591.73-3.889l1.969.352c-.234 1.309-.479 2.617-.736 3.923zm1.405-7.869-1.974-.317c.209-1.304.407-2.61.593-3.915l1.98.281c-.188 1.318-.387 2.635-.599 3.951zm1.125-7.905-1.984-.246c.162-1.313.313-2.626.451-3.94l1.989.21c-.139 1.326-.291 2.651-.456 3.976zm.838-7.955c.115-1.326.218-2.653.308-3.98l-1.996-.136c-.089 1.315-.19 2.629-.304 3.943zm.54-7.971-1.998-.097c.065-1.319.116-2.638.155-3.957l1.999.059c-.039 1.332-.091 2.663-.156 3.995z" fill="#331b3b" fill-rule="evenodd"/></svg>