<svg width="52" height="48" viewBox="0 0 52 48" fill="none" xmlns="http://www.w3.org/2000/svg">
<path d="M25.5955 27.0603C24.2042 27.0603 22.8132 26.5006 21.7541 25.3817C19.6362 23.1442 19.6362 19.5029 21.7541 17.2654C23.8724 15.0279 27.3189 15.0276 29.4368 17.2654C31.5551 19.5029 31.5551 23.1442 29.4368 25.3817C28.3777 26.5006 26.9864 27.0603 25.5955 27.0603ZM25.5952 16.298C24.3765 16.298 23.1575 16.7879 22.2297 17.7682C20.3739 19.7287 20.3739 22.9184 22.2297 24.8789C24.0854 26.8395 27.1049 26.8395 28.9606 24.8789C30.8164 22.9184 30.8164 19.7287 28.9606 17.7682C28.0328 16.7883 26.8141 16.298 25.5952 16.298Z" fill="#331B3B"/>
<path d="M36.6318 31.0997L32.1588 26.3737C31.7502 25.942 31.1303 25.8745 30.6493 26.1607L29.6622 25.1178C31.5456 22.8665 31.4742 19.4183 29.4364 17.2658C27.3189 15.0279 23.8719 15.0282 21.7537 17.2658C19.6358 19.5033 19.6358 23.1445 21.7537 25.382C22.8128 26.5006 24.2038 27.0606 25.5951 27.0606C26.8807 27.0606 28.1629 26.5763 29.1864 25.621L30.1735 26.6638C29.9025 27.1719 29.9661 27.8265 30.3751 28.2585L34.8484 32.9842C35.0857 33.2352 35.4024 33.3735 35.74 33.3735C36.0775 33.3735 36.3942 33.2352 36.6315 32.9842C36.8691 32.7331 37 32.3986 37 32.0419C37 31.6853 36.8694 31.3504 36.6318 31.0997ZM22.2299 24.8793C20.3742 22.9187 20.3742 19.729 22.2299 17.7685C23.1578 16.7882 24.3764 16.2983 25.5954 16.2983C26.8144 16.2983 28.033 16.7882 28.9609 17.7685C30.8166 19.729 30.8166 22.9187 28.9609 24.8793C27.1052 26.8398 24.0853 26.8394 22.2299 24.8793ZM36.1559 32.4814C35.9352 32.7146 35.5454 32.7146 35.3243 32.4814L30.8509 27.7554C30.6217 27.5129 30.6217 27.1189 30.8509 26.8764C30.9657 26.7555 31.1161 26.6947 31.2669 26.6947C31.4173 26.6947 31.5681 26.7552 31.6825 26.8764L36.1556 31.6025C36.266 31.7191 36.3269 31.8752 36.3269 32.0416C36.3269 32.208 36.2663 32.3644 36.1559 32.4814Z" fill="#331B3B"/>
<path d="M22.0735 23.3668C21.9716 23.3668 21.8709 23.318 21.805 23.226C21.6929 23.0695 21.7218 22.8462 21.8703 22.7278L26.727 18.8444C26.803 18.784 26.8993 18.7598 26.9929 18.7787C27.0861 18.7975 27.1679 18.8569 27.2173 18.9426L28.7214 21.547L29.2275 21.163C29.3776 21.0478 29.5883 21.0848 29.6974 21.2444C29.8057 21.4041 29.7714 21.626 29.6203 21.7408L28.8196 22.3484C28.7436 22.406 28.6477 22.4284 28.5568 22.4082C28.4649 22.3886 28.3848 22.3292 28.3364 22.245L26.837 19.6487L22.2768 23.2946C22.2156 23.3433 22.1442 23.3668 22.0735 23.3668Z" fill="#331B3B"/>
<path d="M34.3312 27.4873C34.5173 27.4873 34.6678 27.3284 34.6678 27.1317V9.77316C34.6678 8.79538 33.9149 8 32.9894 8H18.678C17.7525 8 17 8.79538 17 9.77316V38.2272C17 39.2046 17.7529 40 18.678 40H32.9891C33.9146 40 34.6674 39.2046 34.6674 38.2272V33.9076C34.6674 33.7109 34.517 33.552 34.3309 33.552C34.1448 33.552 33.9943 33.7109 33.9943 33.9076V34.8267H17.6731V24.2805L18.5448 25.7877C18.5942 25.8734 18.676 25.9328 18.7692 25.9516C18.7901 25.9559 18.811 25.958 18.8318 25.958C18.9045 25.958 18.9759 25.9332 19.0351 25.8862L20.102 25.0336C20.25 24.9148 20.2793 24.6919 20.1673 24.5355C20.0548 24.379 19.8438 24.3481 19.6957 24.4665L18.9254 25.0823L17.6731 22.917V12.0789H33.9947V17.5452L31.5698 19.386C31.4187 19.5004 31.3841 19.7227 31.4928 19.8823C31.5584 19.979 31.6617 20.0306 31.7664 20.0306C31.8344 20.0306 31.903 20.0089 31.9622 19.9637L33.9947 18.421V27.1321C33.9947 27.328 34.1451 27.4873 34.3312 27.4873ZM33.9947 35.5378V38.2268C33.9947 38.8121 33.5437 39.2885 32.9894 39.2885H18.678C18.1241 39.2885 17.6731 38.8121 17.6731 38.2268V35.5378H33.9947ZM17.6731 11.3678V9.77316C17.6731 9.18756 18.1241 8.71111 18.678 8.71111H32.9891C33.5433 8.71111 33.9943 9.18756 33.9943 9.77316V11.3678H17.6731V11.3678Z" fill="#331B3B"/>
<path d="M25.8337 38.6948C25.1747 38.6948 24.6386 38.1284 24.6386 37.4322C24.6386 36.736 25.1747 36.1693 25.8337 36.1693C26.4927 36.1693 27.0288 36.736 27.0288 37.4322C27.0288 38.1284 26.4927 38.6948 25.8337 38.6948ZM25.8337 36.8807C25.5459 36.8807 25.3117 37.1282 25.3117 37.4325C25.3117 37.7369 25.5459 37.984 25.8337 37.984C26.1214 37.984 26.3557 37.7369 26.3557 37.4325C26.3557 37.1282 26.1218 36.8807 25.8337 36.8807Z" fill="#331B3B"/>
<path d="M27.8819 10.3708H23.7855C23.5997 10.3708 23.4489 10.2116 23.4489 10.0153C23.4489 9.81902 23.5997 9.65973 23.7855 9.65973H27.8819C28.068 9.65973 28.2185 9.81902 28.2185 10.0153C28.2185 10.2116 28.068 10.3708 27.8819 10.3708Z" fill="#331B3B"/>
</svg>
