<svg width="484" height="295" viewBox="0 0 484 295" fill="none" xmlns="http://www.w3.org/2000/svg">
<mask id="mask0_112_45" style="mask-type:alpha" maskUnits="userSpaceOnUse" x="0" y="0" width="484" height="295">
<rect x="0.732666" width="483.267" height="294.798" fill="#D9D9D9"/>
</mask>
<g mask="url(#mask0_112_45)">
<path fill-rule="evenodd" clip-rule="evenodd" d="M581.723 47.81L579.723 47.7916C579.73 47.1277 579.733 46.4633 579.733 45.7982C579.733 45.1333 579.73 44.469 579.723 43.8054L581.723 43.7869C581.73 44.4567 581.733 45.1272 581.733 45.7982C581.733 46.4695 581.73 47.1401 581.723 47.81ZM581.649 39.7757L579.65 39.8311C579.614 38.5089 579.565 37.1893 579.504 35.8723L581.502 35.7801C581.563 37.1093 581.612 38.4412 581.649 39.7757ZM581.281 31.789L579.285 31.9181C579.199 30.5938 579.101 29.2722 578.991 27.9536L580.984 27.7873C581.095 29.1183 581.194 30.4523 581.281 31.789ZM580.615 23.8031L578.625 24.0063C578.491 22.6921 578.345 21.381 578.187 20.0728L580.172 19.8328C580.332 21.1532 580.479 22.4767 580.615 23.8031ZM579.654 15.8544L577.673 16.1313C577.49 14.8206 577.294 13.5131 577.087 12.2088L579.062 11.8951C579.272 13.2116 579.469 14.5314 579.654 15.8544ZM578.399 7.95535L576.43 8.30563C576.198 7.00053 575.954 5.69878 575.698 4.40047L577.66 4.01366C577.919 5.32411 578.165 6.63803 578.399 7.95535ZM576.849 0.0924072L574.895 0.515488C574.615 -0.776001 574.324 -2.06398 574.021 -3.34836L575.968 -3.80746C576.273 -2.51112 576.567 -1.21114 576.849 0.0924072ZM575.012 -7.69846L573.074 -7.20351C572.747 -8.48563 572.407 -9.76404 572.057 -11.0387L573.985 -11.5692C574.339 -10.2827 574.681 -8.99248 575.012 -7.69846ZM572.889 -15.4167L570.97 -14.851C570.596 -16.12 570.21 -17.3852 569.813 -18.6463L571.721 -19.247C572.122 -17.9743 572.511 -16.6975 572.889 -15.4167ZM570.484 -23.0554L568.587 -22.4201C568.167 -23.674 567.736 -24.9238 567.293 -26.1695L569.178 -26.839C569.624 -25.582 570.06 -24.3207 570.484 -23.0554ZM567.804 -30.599L565.932 -29.8956C565.466 -31.1338 564.99 -32.3678 564.503 -33.5974L566.362 -34.3342C566.854 -33.0935 567.334 -31.8484 567.804 -30.599ZM564.854 -38.043L563.008 -37.2731C562.499 -38.4936 561.979 -39.7096 561.448 -40.9212L563.28 -41.7237C563.816 -40.5014 564.34 -39.2744 564.854 -38.043ZM561.641 -45.3759L559.824 -44.5411C559.272 -45.7432 558.709 -46.9408 558.136 -48.1336L559.938 -49.0001C560.517 -47.7968 561.084 -46.5887 561.641 -45.3759ZM558.172 -52.5932L556.385 -51.6954C555.792 -52.8766 555.188 -54.0531 554.573 -55.2248L556.345 -56.1534C556.964 -54.9715 557.573 -53.7848 558.172 -52.5932ZM554.455 -59.6843L552.7 -58.7253C552.065 -59.8862 551.421 -61.0423 550.766 -62.1934L552.505 -63.1822C553.165 -62.0212 553.815 -60.8552 554.455 -59.6843ZM550.497 -66.6426L548.776 -65.6244C548.102 -66.763 547.419 -67.8967 546.725 -69.0251L548.429 -70.0722C549.129 -68.9342 549.818 -67.7909 550.497 -66.6426ZM546.303 -73.4683L544.617 -72.3929C543.907 -73.5066 543.187 -74.6152 542.457 -75.7186L544.125 -76.8219C544.861 -75.7093 545.587 -74.5915 546.303 -73.4683ZM541.888 -80.1434L540.239 -79.0128C539.49 -80.1053 538.732 -81.1926 537.964 -82.2743L539.595 -83.4319C540.369 -82.3412 541.133 -81.245 541.888 -80.1434ZM537.255 -86.6726L535.643 -85.4887C534.86 -86.5547 534.068 -87.6153 533.266 -88.6703L534.859 -89.8801C535.667 -88.8165 536.466 -87.7473 537.255 -86.6726ZM532.408 -93.0538L530.835 -91.8187C530.019 -92.8576 529.195 -93.8908 528.361 -94.9185L529.914 -96.1784C530.754 -95.1426 531.586 -94.101 532.408 -93.0538ZM527.368 -99.2667C526.511 -100.29 525.645 -101.308 524.77 -102.32L523.257 -101.012C524.125 -100.008 524.984 -98.998 525.835 -97.9824L527.368 -99.2667ZM522.13 -105.325L520.638 -103.994C519.758 -104.98 518.869 -105.961 517.972 -106.936L519.443 -108.29C520.347 -107.308 521.243 -106.319 522.13 -105.325ZM516.706 -111.219L515.256 -109.842C514.345 -110.801 513.426 -111.755 512.499 -112.703L513.929 -114.101C514.863 -113.146 515.789 -112.186 516.706 -111.219ZM511.111 -116.939L509.702 -115.518C508.762 -116.451 507.814 -117.378 506.857 -118.298L508.244 -119.739C509.208 -118.812 510.163 -117.878 511.111 -116.939ZM505.337 -122.496L503.971 -121.035C503.006 -121.936 502.033 -122.832 501.052 -123.721L502.396 -125.203C503.384 -124.307 504.364 -123.405 505.337 -122.496ZM499.409 -127.872L498.088 -126.371C497.092 -127.247 496.09 -128.117 495.079 -128.981L496.379 -130.501C497.397 -129.631 498.407 -128.755 499.409 -127.872ZM493.324 -133.074L492.047 -131.536C491.029 -132.381 490.003 -133.22 488.971 -134.053L490.226 -135.61C491.266 -134.771 492.299 -133.926 493.324 -133.074ZM487.084 -138.106L485.851 -136.531C484.811 -137.345 483.764 -138.153 482.709 -138.955L483.92 -140.547C484.981 -139.74 486.036 -138.926 487.084 -138.106ZM480.718 -142.946L479.53 -141.337C478.463 -142.124 477.39 -142.905 476.31 -143.679L477.475 -145.305C478.563 -144.525 479.644 -143.739 480.718 -142.946ZM474.206 -147.614L473.063 -145.972C471.978 -146.727 470.887 -147.476 469.789 -148.217L470.908 -149.875C472.014 -149.128 473.113 -148.374 474.206 -147.614ZM467.572 -152.095L466.475 -150.422C465.367 -151.149 464.252 -151.87 463.131 -152.583L464.204 -154.27C465.333 -153.552 466.456 -152.827 467.572 -152.095ZM460.819 -156.392L459.769 -154.69C458.642 -155.385 457.509 -156.074 456.37 -156.756L457.397 -158.472C458.544 -157.786 459.685 -157.092 460.819 -156.392ZM453.939 -160.511L452.935 -158.781C451.793 -159.445 450.645 -160.101 449.491 -160.75L450.472 -162.493C451.634 -161.839 452.789 -161.179 453.939 -160.511ZM446.972 -164.432L446.015 -162.676C444.85 -163.312 443.68 -163.94 442.504 -164.561L443.438 -166.329C444.622 -165.704 445.8 -165.072 446.972 -164.432ZM439.887 -168.175L438.976 -166.395C437.799 -166.997 436.617 -167.592 435.429 -168.18L436.316 -169.972C437.512 -169.38 438.702 -168.781 439.887 -168.175ZM432.713 -171.727L431.85 -169.923C430.653 -170.496 429.451 -171.062 428.244 -171.621L429.084 -173.436C430.299 -172.873 431.509 -172.304 432.713 -171.727ZM425.45 -175.09L424.633 -173.264C423.424 -173.805 422.21 -174.339 420.992 -174.865L421.785 -176.701C423.011 -176.171 424.233 -175.634 425.45 -175.09ZM418.09 -178.269L417.321 -176.423C416.1 -176.931 414.875 -177.433 413.645 -177.927L414.391 -179.783C415.628 -179.285 416.862 -178.781 418.09 -178.269ZM410.671 -181.25L409.949 -179.385C408.712 -179.863 407.47 -180.335 406.224 -180.799L406.923 -182.673C408.176 -182.206 409.426 -181.732 410.671 -181.25ZM403.157 -184.049L402.483 -182.166C401.239 -182.612 399.991 -183.05 398.738 -183.481L399.389 -185.372C400.649 -184.938 401.906 -184.497 403.157 -184.049ZM395.594 -186.651L394.967 -184.752C393.706 -185.168 392.441 -185.577 391.171 -185.978L391.774 -187.885C393.052 -187.481 394.325 -187.07 395.594 -186.651ZM387.957 -189.066L387.378 -187.152C386.112 -187.535 384.841 -187.911 383.567 -188.279L384.122 -190.2C385.405 -189.83 386.683 -189.452 387.957 -189.066ZM380.264 -191.29L379.732 -189.362C378.454 -189.714 377.171 -190.059 375.885 -190.397L376.393 -192.331C377.687 -191.992 378.977 -191.645 380.264 -191.29ZM372.524 -193.321L372.04 -191.381C370.755 -191.701 369.466 -192.014 368.173 -192.32L368.633 -194.266C369.934 -193.959 371.231 -193.644 372.524 -193.321ZM364.72 -195.166L364.284 -193.214C362.993 -193.502 361.7 -193.783 360.403 -194.056L360.815 -196.013C362.12 -195.738 363.422 -195.456 364.72 -195.166ZM356.898 -196.814L356.509 -194.852C355.208 -195.11 353.904 -195.36 352.596 -195.602L352.961 -197.569C354.276 -197.325 355.589 -197.073 356.898 -196.814ZM349.011 -198.277L348.67 -196.306C347.369 -196.531 346.065 -196.749 344.757 -196.959L345.074 -198.933C346.39 -198.722 347.702 -198.503 349.011 -198.277ZM341.119 -199.544L340.825 -197.566C339.512 -197.761 338.195 -197.948 336.875 -198.128L337.145 -200.109C338.473 -199.929 339.797 -199.74 341.119 -199.544ZM333.177 -200.625L332.931 -198.641C331.62 -198.803 330.305 -198.958 328.987 -199.106L329.21 -201.093C330.535 -200.945 331.858 -200.789 333.177 -200.625ZM325.226 -201.515L325.027 -199.525C323.704 -199.657 322.378 -199.782 321.05 -199.899L321.225 -201.891C322.561 -201.773 323.895 -201.648 325.226 -201.515ZM317.248 -202.217L317.096 -200.223C315.777 -200.323 314.455 -200.416 313.131 -200.501L313.259 -202.497C314.591 -202.411 315.921 -202.318 317.248 -202.217ZM309.255 -202.73L309.151 -200.733C307.825 -200.803 306.497 -200.865 305.166 -200.919L305.248 -202.917C306.586 -202.863 307.922 -202.8 309.255 -202.73ZM301.26 -203.056L301.202 -201.057C299.879 -201.096 298.553 -201.126 297.224 -201.15L297.259 -203.149C298.595 -203.126 299.929 -203.095 301.26 -203.056ZM293.245 -203.196L293.234 -201.196C292.567 -201.2 291.9 -201.202 291.233 -201.202C290.565 -201.202 289.899 -201.2 289.232 -201.196L289.221 -203.196C289.891 -203.2 290.561 -203.202 291.233 -203.202C291.904 -203.202 292.575 -203.2 293.245 -203.196ZM285.206 -203.149L285.241 -201.15C283.913 -201.126 282.587 -201.096 281.264 -201.057L281.206 -203.056C282.537 -203.095 283.871 -203.126 285.206 -203.149ZM277.218 -202.917C275.88 -202.863 274.544 -202.8 273.21 -202.73L273.315 -200.733C274.641 -200.803 275.969 -200.865 277.3 -200.919L277.218 -202.917ZM269.207 -202.497L269.335 -200.501C268.01 -200.416 266.689 -200.323 265.369 -200.223L265.218 -202.217C266.545 -202.318 267.874 -202.411 269.207 -202.497ZM261.241 -201.891L261.416 -199.899C260.088 -199.782 258.762 -199.657 257.439 -199.525L257.24 -201.515C258.571 -201.648 259.905 -201.773 261.241 -201.891ZM253.256 -201.093L253.478 -199.106C252.161 -198.958 250.846 -198.803 249.534 -198.641L249.288 -200.625C250.608 -200.789 251.931 -200.945 253.256 -201.093ZM245.321 -200.11L245.59 -198.128C244.271 -197.948 242.954 -197.761 241.64 -197.566L241.347 -199.544C242.668 -199.74 243.993 -199.929 245.321 -200.11ZM237.391 -198.933L237.709 -196.959C236.401 -196.749 235.097 -196.531 233.796 -196.306L233.455 -198.277C234.764 -198.503 236.076 -198.722 237.391 -198.933ZM229.505 -197.569L229.87 -195.602C228.562 -195.36 227.258 -195.11 225.956 -194.852L225.568 -196.814C226.877 -197.073 228.189 -197.325 229.505 -197.569ZM221.651 -196.013L222.063 -194.056C220.766 -193.783 219.472 -193.502 218.182 -193.214L217.746 -195.166C219.044 -195.456 220.346 -195.738 221.651 -196.013ZM213.833 -194.266L214.293 -192.32C213 -192.014 211.711 -191.701 210.426 -191.381L209.942 -193.321C211.235 -193.644 212.532 -193.959 213.833 -194.266ZM206.073 -192.332L206.581 -190.397C205.294 -190.06 204.012 -189.715 202.734 -189.362L202.202 -191.29C203.489 -191.645 204.779 -191.992 206.073 -192.332ZM198.343 -190.201L198.899 -188.279C197.624 -187.911 196.354 -187.535 195.088 -187.152L194.508 -189.066C195.783 -189.452 197.061 -189.83 198.343 -190.201ZM190.692 -187.885L191.295 -185.979C190.025 -185.577 188.76 -185.168 187.498 -184.752L186.871 -186.651C188.141 -187.07 189.414 -187.481 190.692 -187.885ZM183.077 -185.372L183.727 -183.481C182.475 -183.05 181.226 -182.612 179.983 -182.166L179.308 -184.049C180.56 -184.497 181.816 -184.938 183.077 -185.372ZM175.543 -182.673L176.241 -180.799C174.995 -180.335 173.754 -179.864 172.517 -179.385L171.795 -181.25C173.04 -181.732 174.289 -182.206 175.543 -182.673ZM168.075 -179.783C166.837 -179.285 165.604 -178.781 164.376 -178.269L165.145 -176.423C166.365 -176.931 167.591 -177.433 168.821 -177.927L168.075 -179.783ZM160.681 -176.701L161.474 -174.865C160.255 -174.339 159.041 -173.805 157.833 -173.264L157.016 -175.09C158.233 -175.634 159.454 -176.171 160.681 -176.701ZM153.382 -173.436L154.222 -171.621C153.015 -171.062 151.813 -170.496 150.616 -169.923L149.752 -171.727C150.957 -172.304 152.167 -172.873 153.382 -173.436ZM146.149 -169.973L147.037 -168.18C145.849 -167.592 144.666 -166.997 143.489 -166.395L142.579 -168.176C143.763 -168.782 144.954 -169.381 146.149 -169.973ZM139.027 -166.33L139.962 -164.561C138.786 -163.94 137.616 -163.312 136.451 -162.677L135.493 -164.432C136.666 -165.072 137.844 -165.704 139.027 -166.33ZM131.994 -162.493L132.975 -160.75C131.821 -160.101 130.673 -159.445 129.53 -158.782L128.526 -160.511C129.676 -161.179 130.832 -161.839 131.994 -162.493ZM125.068 -158.472L126.096 -156.756C124.957 -156.074 123.824 -155.386 122.697 -154.69L121.646 -156.392C122.781 -157.092 123.921 -157.786 125.068 -158.472ZM118.261 -154.27C117.133 -153.552 116.01 -152.827 114.894 -152.095L115.99 -150.423C117.099 -151.15 118.214 -151.87 119.335 -152.583L118.261 -154.27ZM111.557 -149.875L112.677 -148.217C111.579 -147.476 110.487 -146.727 109.402 -145.972L108.26 -147.614C109.353 -148.374 110.452 -149.128 111.557 -149.875ZM104.991 -145.305L106.156 -143.679C105.076 -142.905 104.002 -142.124 102.936 -141.337L101.748 -142.946C102.822 -143.739 103.903 -144.525 104.991 -145.305ZM98.5459 -140.547L99.7563 -138.955C98.702 -138.153 97.6547 -137.345 96.6144 -136.531L95.3815 -138.106C96.4293 -138.926 97.4841 -139.74 98.5459 -140.547ZM92.2398 -135.61L93.495 -134.053C92.4624 -133.22 91.437 -132.381 90.4188 -131.536L89.1412 -133.075C90.1668 -133.926 91.1997 -134.771 92.2398 -135.61ZM86.0865 -130.501L87.3862 -128.981C86.3759 -128.117 85.3732 -127.247 84.3779 -126.371L83.0562 -127.872C84.0588 -128.755 85.0689 -129.631 86.0865 -130.501ZM80.0695 -125.203L81.4131 -123.721C80.4324 -122.832 79.4594 -121.936 78.4941 -121.035L77.1288 -122.496C78.1013 -123.405 79.0816 -124.307 80.0695 -125.203ZM74.2211 -119.739L75.608 -118.298C74.6518 -117.378 73.7034 -116.451 72.7631 -115.519L71.3548 -116.939C72.3022 -117.878 73.2577 -118.812 74.2211 -119.739ZM68.5368 -114.101L69.9664 -112.703C69.0393 -111.755 68.1205 -110.802 67.2099 -109.842L65.7591 -111.219C66.6768 -112.186 67.6027 -113.147 68.5368 -114.101ZM63.022 -108.29L64.4937 -106.936C63.5966 -105.961 62.708 -104.98 61.8279 -103.994L60.3356 -105.326C61.2225 -106.32 62.1181 -107.308 63.022 -108.29ZM57.6959 -102.32L59.2087 -101.012C58.3405 -100.008 57.481 -98.9982 56.6303 -97.9826L55.0971 -99.2669C55.9545 -100.291 56.8208 -101.308 57.6959 -102.32ZM52.5513 -96.1786L54.1046 -94.9187C53.271 -93.8911 52.4463 -92.8578 51.6306 -91.8189L50.0576 -93.0541C50.8798 -94.1013 51.7111 -95.1428 52.5513 -96.1786ZM47.6064 -89.8803L49.1991 -88.6706C48.3977 -87.6155 47.6055 -86.555 46.8226 -85.489L45.2106 -86.6728C46 -87.7476 46.7986 -88.8167 47.6064 -89.8803ZM42.8708 -83.4321L44.5017 -82.2746C43.7339 -81.1928 42.9756 -80.1056 42.2268 -79.013L40.577 -80.1437C41.332 -81.2453 42.0966 -82.3415 42.8708 -83.4321ZM38.3406 -76.8221L40.0087 -75.7188C39.279 -74.6155 38.5589 -73.5069 37.8486 -72.3931L36.1623 -73.4686C36.8786 -74.5917 37.6047 -75.7096 38.3406 -76.8221ZM34.0361 -70.0724L35.7401 -69.0254C35.0467 -67.8969 34.3632 -66.7633 33.6897 -65.6246L31.9683 -66.6428C32.6475 -67.7912 33.3368 -68.9344 34.0361 -70.0724ZM29.9609 -63.1825L31.6994 -62.1936C31.0447 -61.0426 30.4001 -59.8865 29.7658 -58.7256L28.0107 -59.6846C28.6505 -60.8555 29.3006 -62.0215 29.9609 -63.1825ZM26.1207 -56.1537L27.892 -55.2251C27.2778 -54.0534 26.6739 -52.8769 26.0805 -51.6957L24.2934 -52.5935C24.892 -53.7851 25.5011 -54.9718 26.1207 -56.1537ZM22.5274 -49.0005L24.3299 -48.1339C23.7565 -46.9411 23.1936 -45.7436 22.6415 -44.5415L20.8241 -45.3762C21.3811 -46.589 21.9489 -47.7971 22.5274 -49.0005ZM19.1855 -41.7241L21.0174 -40.9215C20.4866 -39.71 19.9666 -38.4939 19.4576 -37.2735L17.6117 -38.0434C18.1253 -39.2748 18.65 -40.5017 19.1855 -41.7241ZM16.1034 -34.3346L17.9627 -33.5977C17.4754 -32.3681 16.9991 -31.1342 16.534 -29.896L14.6617 -30.5994C15.1311 -31.8488 15.6117 -33.0939 16.1034 -34.3346ZM13.2876 -26.8394L15.1722 -26.1699C14.7297 -24.9242 14.2984 -23.6744 13.8783 -22.4205L11.9819 -23.0558C12.4058 -24.3212 12.8411 -25.5824 13.2876 -26.8394ZM10.7445 -19.2475L12.6522 -18.6468C12.2551 -17.3856 11.8694 -16.1205 11.4951 -14.8514L9.57678 -15.4171C9.95449 -16.6979 10.3438 -17.9747 10.7445 -19.2475ZM8.48027 -11.5696L10.4086 -11.0391C10.058 -9.76447 9.71886 -8.48605 9.39138 -7.20393L7.45359 -7.69888C7.78411 -8.9929 8.12637 -10.2832 8.48027 -11.5696ZM6.4979 -3.80791L8.44449 -3.3488C8.14157 -2.06442 7.85029 -0.776443 7.57075 0.51506L5.61602 0.0919647C5.89816 -1.21159 6.19216 -2.51157 6.4979 -3.80791ZM4.80522 4.0132L6.76746 4.40001C6.51153 5.69833 6.26743 7.00008 6.03527 8.30519L4.06618 7.95491C4.30052 6.63759 4.5469 5.32365 4.80522 4.0132ZM3.40295 11.8946L5.37819 12.2083C5.17103 13.5126 4.97576 14.8202 4.79248 16.1309L2.81175 15.8539C2.99675 14.5309 3.19385 13.2111 3.40295 11.8946ZM2.29317 19.8323L4.27872 20.0724C4.12058 21.3805 3.97437 22.6917 3.84019 24.0058L1.85053 23.8026C1.98598 22.4762 2.13356 21.1527 2.29317 19.8323ZM1.48102 27.7868L3.4741 27.9531C3.36413 29.2717 3.26625 30.5933 3.18056 31.9176L1.18474 31.7885C1.27123 30.4518 1.37002 29.1178 1.48102 27.7868ZM0.963518 35.7796L2.96139 35.8718C2.90059 37.1888 2.85184 38.5084 2.81522 39.8306L0.815987 39.7752C0.852946 38.4407 0.902154 37.1088 0.963518 35.7796ZM0.74195 43.7864C0.735765 44.4564 0.732666 45.127 0.732666 45.7982C0.732666 46.4693 0.735763 47.1397 0.741946 47.8095L2.74186 47.7911C2.73573 47.1274 2.73267 46.4631 2.73267 45.7982C2.73267 45.1331 2.73574 44.4687 2.74187 43.8049L0.74195 43.7864ZM0.815973 51.8207L2.81521 51.7654C2.85182 53.0876 2.90057 54.4072 2.96137 55.7241L0.963494 55.8163C0.902133 54.4871 0.852929 53.1552 0.815973 51.8207ZM1.1847 59.8075L3.18053 59.6783C3.26622 61.0027 3.36409 62.3242 3.47406 63.6429L1.48098 63.8091C1.36998 62.4781 1.27119 61.1442 1.1847 59.8075ZM1.85048 67.7933L3.84014 67.5902C3.97432 68.9043 4.12053 70.2155 4.27866 71.5236L2.29312 71.7636C2.1335 70.4432 1.98593 69.1198 1.85048 67.7933ZM2.81169 75.7421L4.79242 75.4651C4.97569 76.7758 5.17096 78.0833 5.37812 79.3877L3.40288 79.7014C3.19378 78.3849 2.99668 77.0651 2.81169 75.7421ZM4.0661 83.6411L6.03519 83.2908C6.26735 84.5959 6.51144 85.8976 6.76737 87.196L4.80513 87.5828C4.54681 86.2723 4.30043 84.9584 4.0661 83.6411ZM5.61592 91.504L7.57066 91.0809C7.85019 92.3724 8.14147 93.6604 8.44439 94.9448L6.4978 95.4039C6.19206 94.1076 5.89807 92.8076 5.61592 91.504ZM7.45348 99.2949L9.39127 98.8C9.71875 100.082 10.0579 101.36 10.4085 102.635L8.48015 103.166C8.12625 101.879 7.784 100.589 7.45348 99.2949ZM9.57666 107.013C9.95436 108.294 10.3436 109.571 10.7444 110.843L12.6521 110.243C12.255 108.982 11.8692 107.716 11.495 106.447L9.57666 107.013ZM11.9818 114.652L13.8782 114.017C14.2982 115.27 14.7296 116.52 15.1721 117.766L13.2875 118.435C12.8409 117.178 12.4057 115.917 11.9818 114.652ZM14.6616 122.195L16.5338 121.492C16.999 122.73 17.4753 123.964 17.9626 125.194L16.1033 125.931C15.6116 124.69 15.131 123.445 14.6616 122.195ZM17.6116 129.639L19.4574 128.87C19.9665 130.09 20.4865 131.306 21.0172 132.518L19.1853 133.32C18.6498 132.098 18.1252 130.871 17.6116 129.639ZM20.8239 136.972L22.6414 136.138C23.1935 137.34 23.7563 138.537 24.3298 139.73L22.5272 140.597C21.9487 139.393 21.3809 138.185 20.8239 136.972ZM24.2932 144.19L26.0804 143.292C26.6738 144.473 27.2776 145.65 27.8919 146.821L26.1205 147.75C25.501 146.568 24.8918 145.381 24.2932 144.19ZM28.0105 151.281L29.7656 150.322C30.3999 151.483 31.0445 152.639 31.6992 153.79L29.9608 154.779C29.3004 153.618 28.6503 152.452 28.0105 151.281ZM31.9681 158.239L33.6895 157.221C34.363 158.359 35.0465 159.493 35.7399 160.622L34.0359 161.669C33.3366 160.531 32.6473 159.387 31.9681 158.239ZM36.1622 165.065L37.8484 163.989C38.5587 165.103 39.2788 166.212 40.0086 167.315L38.3404 168.418C37.6046 167.306 36.8785 166.188 36.1622 165.065ZM40.5769 171.74L42.2266 170.609C42.9754 171.702 43.7338 172.789 44.5016 173.871L42.8706 175.028C42.0965 173.938 41.3319 172.841 40.5769 171.74ZM45.2105 178.269L46.8224 177.085C47.6054 178.151 48.3976 179.212 49.1989 180.267L47.6063 181.477C46.7984 180.413 45.9998 179.344 45.2105 178.269ZM50.0574 184.65L51.6305 183.415C52.4461 184.454 53.2708 185.487 54.1044 186.515L52.5511 187.775C51.7109 186.739 50.8797 185.697 50.0574 184.65ZM55.0969 190.863L56.6301 189.579C57.4808 190.594 58.3403 191.604 59.2085 192.608L57.6957 193.917C56.8207 192.905 55.9544 191.887 55.0969 190.863ZM60.3354 196.922L61.8277 195.59C62.7079 196.577 63.5965 197.557 64.4935 198.532L63.0218 199.886C62.1179 198.904 61.2224 197.916 60.3354 196.922ZM65.759 202.815L67.2097 201.438C68.1203 202.398 69.0391 203.352 69.9662 204.299L68.5366 205.698C67.6025 204.743 66.6766 203.782 65.759 202.815ZM71.3546 208.535L72.7629 207.115C73.7032 208.047 74.6516 208.974 75.6078 209.894L74.2209 211.335C73.2575 210.408 72.302 209.475 71.3546 208.535ZM77.1286 214.092C78.1011 215.001 79.0814 215.903 80.0693 216.799L81.4129 215.318C80.4322 214.428 79.4592 213.533 78.4939 212.631L77.1286 214.092ZM83.056 219.468L84.3777 217.967C85.373 218.844 86.3757 219.714 87.386 220.577L86.0863 222.097C85.0687 221.227 84.0586 220.351 83.056 219.468ZM89.141 224.671L90.4186 223.132C91.4368 223.977 92.4622 224.816 93.4948 225.649L92.2395 227.206C91.1995 226.367 90.1666 225.522 89.141 224.671ZM95.3813 229.702L96.6142 228.127C97.6545 228.942 98.7018 229.75 99.7561 230.551L98.5456 232.143C97.4839 231.336 96.4291 230.522 95.3813 229.702ZM101.748 234.542L102.935 232.933C104.002 233.72 105.076 234.501 106.156 235.276L104.991 236.901C103.903 236.121 102.822 235.335 101.748 234.542ZM108.26 239.21L109.402 237.569C110.487 238.324 111.579 239.072 112.677 239.814L111.557 241.471C110.452 240.724 109.352 239.97 108.26 239.21ZM114.893 243.691C116.01 244.423 117.132 245.148 118.261 245.867L119.335 244.179C118.214 243.466 117.099 242.746 115.99 242.019L114.893 243.691ZM121.646 247.988L122.697 246.286C123.824 246.982 124.956 247.671 126.095 248.353L125.068 250.069C123.921 249.382 122.781 248.688 121.646 247.988ZM128.526 252.107L129.53 250.378C130.672 251.041 131.82 251.697 132.974 252.347L131.993 254.09C130.832 253.436 129.676 252.775 128.526 252.107ZM135.493 256.029L136.451 254.273C137.615 254.908 138.786 255.536 139.961 256.157L139.027 257.926C137.844 257.301 136.666 256.668 135.493 256.029ZM142.578 259.772L143.489 257.991C144.666 258.593 145.849 259.188 147.036 259.776L146.149 261.569C144.953 260.977 143.763 260.378 142.578 259.772ZM149.752 263.323L150.616 261.519C151.812 262.092 153.014 262.659 154.222 263.217L153.381 265.032C152.166 264.47 150.956 263.9 149.752 263.323ZM157.016 266.686L157.832 264.861C159.041 265.401 160.255 265.935 161.474 266.461L160.681 268.297C159.454 267.768 158.232 267.231 157.016 266.686ZM164.375 269.865L165.145 268.019C166.365 268.528 167.59 269.029 168.82 269.523L168.075 271.379C166.837 270.882 165.604 270.377 164.375 269.865ZM171.795 272.846L172.517 270.981C173.754 271.46 174.995 271.931 176.241 272.396L175.543 274.27C174.289 273.803 173.039 273.328 171.795 272.846ZM179.308 275.645L179.982 273.762C181.226 274.208 182.474 274.646 183.727 275.077L183.076 276.968C181.816 276.535 180.56 276.094 179.308 275.645ZM186.871 278.247L187.498 276.348C188.759 276.764 190.025 277.173 191.294 277.575L190.691 279.482C189.414 279.078 188.14 278.666 186.871 278.247ZM194.508 280.663L195.087 278.748C196.353 279.131 197.624 279.507 198.898 279.876L198.343 281.797C197.061 281.426 195.782 281.048 194.508 280.663ZM202.202 282.887L202.733 280.958C204.012 281.311 205.294 281.656 206.58 281.993L206.073 283.928C204.779 283.588 203.488 283.241 202.202 282.887ZM209.941 284.918L210.425 282.977C211.711 283.298 213 283.611 214.293 283.916L213.833 285.863C212.532 285.555 211.235 285.24 209.941 284.918ZM217.746 286.762L218.182 284.81C219.472 285.099 220.766 285.379 222.063 285.653L221.65 287.61C220.345 287.335 219.044 287.052 217.746 286.762ZM225.567 288.41L225.956 286.448C227.257 286.706 228.562 286.956 229.87 287.199L229.505 289.165C228.189 288.921 226.877 288.67 225.567 288.41ZM233.454 289.873L233.795 287.902C235.096 288.127 236.401 288.345 237.708 288.555L237.391 290.53C236.076 290.318 234.763 290.1 233.454 289.873ZM241.346 291.141L241.64 289.162C242.954 289.357 244.27 289.545 245.59 289.724L245.32 291.706C243.993 291.525 242.668 291.337 241.346 291.141ZM249.288 292.222C250.608 292.385 251.93 292.541 253.255 292.69L253.478 290.702C252.16 290.555 250.846 290.4 249.534 290.237L249.288 292.222ZM257.24 293.112L257.439 291.122C258.762 291.254 260.087 291.378 261.416 291.495L261.241 293.487C259.904 293.37 258.571 293.245 257.24 293.112ZM265.217 293.813L265.369 291.819C266.688 291.919 268.01 292.012 269.334 292.097L269.206 294.093C267.874 294.008 266.544 293.914 265.217 293.813ZM273.21 294.327L273.315 292.33C274.64 292.399 275.969 292.461 277.299 292.515L277.218 294.514C275.879 294.459 274.543 294.397 273.21 294.327ZM281.205 294.653L281.263 292.654C282.587 292.692 283.913 292.723 285.241 292.746L285.206 294.746C283.87 294.722 282.536 294.691 281.205 294.653ZM289.22 294.792L289.232 292.792C289.898 292.796 290.565 292.798 291.233 292.798C291.9 292.798 292.567 292.796 293.233 292.792L293.245 294.792C292.574 294.796 291.904 294.798 291.233 294.798C290.561 294.798 289.89 294.796 289.22 294.792ZM297.259 294.746L297.224 292.746C298.552 292.723 299.878 292.692 301.202 292.654L301.26 294.653C299.928 294.691 298.595 294.722 297.259 294.746ZM305.247 294.514C306.585 294.459 307.921 294.397 309.255 294.327L309.15 292.33C307.824 292.399 306.496 292.461 305.166 292.515L305.247 294.514ZM313.259 294.093L313.131 292.097C314.455 292.012 315.777 291.919 317.096 291.819L317.248 293.813C315.921 293.914 314.591 294.008 313.259 294.093ZM321.224 293.487L321.049 291.495C322.378 291.378 323.703 291.254 325.026 291.122L325.225 293.112C323.894 293.245 322.561 293.37 321.224 293.487ZM329.209 292.69L328.987 290.702C330.304 290.555 331.619 290.4 332.931 290.237L333.177 292.222C331.857 292.385 330.535 292.541 329.209 292.69ZM337.145 291.706L336.875 289.724C338.195 289.545 339.511 289.357 340.825 289.163L341.118 291.141C339.797 291.337 338.472 291.525 337.145 291.706ZM345.074 290.53L344.757 288.555C346.064 288.345 347.369 288.128 348.67 287.902L349.011 289.873C347.702 290.1 346.389 290.319 345.074 290.53ZM352.96 289.165L352.595 287.199C353.903 286.956 355.208 286.706 356.509 286.448L356.897 288.41C355.588 288.67 354.276 288.921 352.96 289.165ZM360.814 287.61L360.402 285.653C361.699 285.38 362.993 285.099 364.283 284.81L364.719 286.762C363.421 287.052 362.12 287.335 360.814 287.61ZM368.632 285.863L368.172 283.916C369.465 283.611 370.754 283.298 372.04 282.977L372.524 284.918C371.23 285.24 369.933 285.555 368.632 285.863ZM376.392 283.928L375.885 281.993C377.171 281.656 378.453 281.311 379.732 280.959L380.263 282.887C378.977 283.241 377.686 283.588 376.392 283.928ZM384.122 281.797L383.567 279.876C384.841 279.507 386.112 279.132 387.378 278.748L387.957 280.663C386.683 281.048 385.404 281.426 384.122 281.797ZM391.773 279.482L391.171 277.575C392.44 277.173 393.706 276.765 394.967 276.348L395.594 278.247C394.325 278.666 393.051 279.078 391.773 279.482ZM399.389 276.969L398.738 275.077C399.991 274.646 401.239 274.208 402.483 273.763L403.157 275.645C401.905 276.094 400.649 276.535 399.389 276.969ZM406.922 274.27L406.224 272.396C407.47 271.932 408.712 271.46 409.948 270.981L410.67 272.846C409.426 273.328 408.176 273.803 406.922 274.27ZM414.39 271.379L413.645 269.523C414.875 269.029 416.1 268.528 417.32 268.019L418.09 269.865C416.861 270.377 415.628 270.882 414.39 271.379ZM421.784 268.298L420.991 266.461C422.21 265.935 423.424 265.402 424.633 264.861L425.449 266.686C424.233 267.231 423.011 267.768 421.784 268.298ZM429.084 265.032L428.244 263.217C429.451 262.659 430.653 262.093 431.849 261.52L432.713 263.323C431.509 263.9 430.299 264.47 429.084 265.032ZM436.316 261.569L435.429 259.777C436.617 259.189 437.799 258.593 438.976 257.991L439.887 259.772C438.702 260.378 437.512 260.977 436.316 261.569ZM443.438 257.926L442.504 256.158C443.679 255.536 444.85 254.908 446.014 254.273L446.972 256.029C445.8 256.668 444.622 257.301 443.438 257.926ZM450.472 254.09L449.491 252.347C450.645 251.697 451.793 251.041 452.935 250.378L453.939 252.108C452.789 252.775 451.633 253.436 450.472 254.09ZM457.397 250.069L456.37 248.353C457.509 247.671 458.642 246.982 459.768 246.286L460.819 247.988C459.684 248.689 458.544 249.382 457.397 250.069ZM464.204 245.867L463.13 244.179C464.252 243.466 465.366 242.746 466.475 242.019L467.572 243.692C466.455 244.424 465.333 245.149 464.204 245.867ZM470.908 241.471L469.788 239.814C470.886 239.072 471.978 238.324 473.063 237.569L474.205 239.21C473.113 239.971 472.014 240.724 470.908 241.471ZM477.475 236.901C478.562 236.122 479.643 235.335 480.718 234.542L479.53 232.933C478.463 233.721 477.39 234.501 476.309 235.276L477.475 236.901ZM483.919 232.143L482.709 230.551C483.763 229.75 484.811 228.942 485.851 228.127L487.084 229.702C486.036 230.522 484.981 231.336 483.919 232.143ZM490.226 227.206L488.97 225.649C490.003 224.817 491.028 223.978 492.047 223.132L493.324 224.671C492.299 225.523 491.266 226.368 490.226 227.206ZM496.379 222.098L495.079 220.577C496.089 219.714 497.092 218.844 498.087 217.967L499.409 219.468C498.407 220.351 497.396 221.228 496.379 222.098ZM502.396 216.799L501.052 215.318C502.033 214.428 503.006 213.533 503.971 212.631L505.337 214.093C504.364 215.001 503.384 215.903 502.396 216.799ZM508.244 211.336L506.857 209.895C507.814 208.974 508.762 208.048 509.702 207.115L511.111 208.535C510.163 209.475 509.208 210.408 508.244 211.336ZM513.929 205.698L512.499 204.299C513.426 203.352 514.345 202.398 515.255 201.439L516.706 202.815C515.789 203.782 514.863 204.743 513.929 205.698ZM519.443 199.887L517.972 198.532C518.869 197.557 519.757 196.577 520.637 195.59L522.13 196.922C521.243 197.916 520.347 198.904 519.443 199.887ZM524.769 193.917L523.257 192.609C524.125 191.605 524.984 190.595 525.835 189.579L527.368 190.863C526.511 191.887 525.645 192.905 524.769 193.917ZM529.914 187.775L528.361 186.515C529.194 185.488 530.019 184.454 530.835 183.415L532.408 184.65C531.585 185.698 530.754 186.739 529.914 187.775ZM534.859 181.477L533.266 180.267C534.068 179.212 534.86 178.151 535.643 177.085L537.255 178.269C536.465 179.344 535.667 180.413 534.859 181.477ZM539.595 175.029L537.964 173.871C538.731 172.789 539.49 171.702 540.239 170.609L541.888 171.74C541.133 172.842 540.369 173.938 539.595 175.029ZM544.125 168.419L542.457 167.315C543.186 166.212 543.906 165.103 544.617 163.99L546.303 165.065C545.587 166.188 544.861 167.306 544.125 168.419ZM548.429 161.669L546.725 160.622C547.419 159.493 548.102 158.36 548.776 157.221L550.497 158.239C549.818 159.388 549.129 160.531 548.429 161.669ZM552.504 154.779L550.766 153.79C551.421 152.639 552.065 151.483 552.7 150.322L554.455 151.281C553.815 152.452 553.165 153.618 552.504 154.779ZM556.345 147.75L554.573 146.822C555.188 145.65 555.791 144.473 556.385 143.292L558.172 144.19C557.573 145.382 556.964 146.568 556.345 147.75ZM559.938 140.597L558.135 139.73C558.709 138.538 559.272 137.34 559.824 136.138L561.641 136.973C561.084 138.185 560.516 139.394 559.938 140.597ZM563.28 133.321L561.448 132.518C561.979 131.306 562.499 130.09 563.008 128.87L564.854 129.64C564.34 130.871 563.815 132.098 563.28 133.321ZM566.362 125.931L564.503 125.194C564.99 123.965 565.466 122.731 565.931 121.492L567.804 122.196C567.334 123.445 566.854 124.69 566.362 125.931ZM569.178 118.436L567.293 117.766C567.736 116.521 568.167 115.271 568.587 114.017L570.483 114.652C570.06 115.918 569.624 117.179 569.178 118.436ZM571.721 110.844L569.813 110.243C570.21 108.982 570.596 107.717 570.97 106.448L572.889 107.014C572.511 108.294 572.122 109.571 571.721 110.844ZM573.985 103.166L572.057 102.635C572.407 101.361 572.746 100.082 573.074 98.8004L575.012 99.2953C574.681 100.589 574.339 101.88 573.985 103.166ZM575.967 95.4044L574.021 94.9453C574.324 93.6609 574.615 92.3729 574.895 91.0814L576.849 91.5045C576.567 92.808 576.273 94.108 575.967 95.4044ZM577.66 87.5832L575.698 87.1964C575.954 85.8981 576.198 84.5963 576.43 83.2913L578.399 83.6415C578.165 84.9589 577.918 86.2728 577.66 87.5832ZM579.062 79.7019L577.087 79.3881C577.294 78.0838 577.49 76.7763 577.673 75.4656L579.654 75.7426C579.469 77.0656 579.271 78.3853 579.062 79.7019ZM580.172 71.7641L578.187 71.5241C578.345 70.2159 578.491 68.9048 578.625 67.5906L580.615 67.7938C580.479 69.1203 580.332 70.4437 580.172 71.7641ZM580.984 63.8096L578.991 63.6434C579.101 62.3247 579.199 61.0032 579.285 59.6788L581.281 59.808C581.194 61.1447 581.095 62.4786 580.984 63.8096ZM581.502 55.8169L579.504 55.7246C579.565 54.4077 579.613 53.0881 579.65 51.7659L581.649 51.8212C581.612 53.1557 581.563 54.4876 581.502 55.8169Z" fill="#331B3B"/>
<path d="M444.77 280.298C-13.6296 144.298 220.437 -233.035 394.77 -404.702L614.27 -466.702L956.77 -513.202L1045.27 -236.702C1036.1 -7.70178 903.17 416.298 444.77 280.298Z" fill="#FEF3C7"/>
</g>
</svg>
