<svg width="52" height="48" viewBox="0 0 52 48" fill="none" xmlns="http://www.w3.org/2000/svg">
<path d="M30.9156 23.7803C30.2031 23.7803 29.5332 23.5024 29.0298 22.9975C28.526 22.4926 28.2483 21.8217 28.2483 21.1077C28.2483 20.394 28.5256 19.7227 29.0298 19.2178C29.5332 18.713 30.2031 18.4351 30.9156 18.4351C31.6278 18.4351 32.2977 18.713 32.8015 19.2178C33.8411 20.26 33.8411 21.9557 32.8015 22.9975C32.298 23.5024 31.6278 23.7803 30.9156 23.7803ZM30.9156 19.1477C30.393 19.1477 29.902 19.3515 29.5325 19.7217C29.1631 20.0919 28.9594 20.5843 28.9594 21.1077C28.9594 21.6311 29.1628 22.1235 29.5325 22.4937C29.902 22.8639 30.393 23.0677 30.9156 23.0677C31.4379 23.0677 31.9293 22.8639 32.2987 22.4937C33.0614 21.7294 33.0614 20.4859 32.2987 19.7217C31.9293 19.3515 31.4379 19.1477 30.9156 19.1477ZM29.2812 19.4698H29.2847H29.2812Z" fill="#331B3B"/>
<path d="M41.9999 12.1292C42.0003 11.9689 41.9992 11.8079 41.9953 11.6457C41.9935 11.5563 41.99 11.4665 41.9868 11.3771C41.9829 11.2652 41.9793 11.1541 41.9736 11.0415C41.9626 10.8266 41.9487 10.6114 41.9306 10.3948C41.9164 10.2213 41.7791 10.0837 41.606 10.0691C41.3887 10.051 41.1729 10.0371 40.9575 10.026C40.8511 10.0203 40.7456 10.0175 40.6396 10.0135C40.544 10.01 40.448 10.0064 40.3527 10.0043C40.1973 10.0011 40.043 10 39.889 10C39.862 10 39.8353 10 39.8083 10.0004C36.6606 10.0167 33.7732 10.807 30.8513 12.4442C30.8477 12.4464 30.8459 12.4503 30.8424 12.4524C28.4854 13.7675 26.1306 15.6274 23.6905 18.073C23.3758 18.3884 23.0665 18.7076 22.7632 19.0293C22.7515 19.029 22.7408 19.024 22.7287 19.0251L17.841 19.3974C17.7727 19.4028 17.7069 19.4273 17.6525 19.469L10.1404 25.1965C10.0235 25.2856 9.97334 25.4374 10.0139 25.5785C10.0544 25.7199 10.1774 25.8218 10.3236 25.835L17.5057 26.4846L20.3924 29.377C19.4513 29.3713 18.3928 29.8128 17.5466 30.6604C17.1633 31.0445 16.8557 31.4749 16.6317 31.9424C16.3181 32.6083 15.6206 34.3442 14.8817 36.1823L14.5262 37.067C14.4728 37.1996 14.5038 37.3514 14.6044 37.4522C14.6723 37.5202 14.7633 37.5566 14.8558 37.5566C14.9006 37.5566 14.9457 37.5484 14.9887 37.5309L15.9021 37.1622C17.7226 36.4275 19.4417 35.7338 20.1051 35.4202C20.5688 35.1965 20.9986 34.8886 21.3819 34.5042C22.0525 33.8322 22.4958 33.007 22.6302 32.1804C22.6594 32.0015 22.6697 31.828 22.669 31.6588L25.4832 34.4778L26.1317 41.6758C26.1449 41.8222 26.2465 41.9455 26.3877 41.9861C26.4201 41.9954 26.4535 42 26.4858 42C26.595 42 26.7006 41.9494 26.7688 41.8593L32.4847 34.3317C32.5259 34.2772 32.5512 34.2116 32.5561 34.1432L32.9206 29.341C33.2651 29.0164 33.6068 28.6858 33.9442 28.3477C36.3851 25.9017 38.241 23.5419 39.5537 21.1796C39.5555 21.1764 39.5591 21.175 39.5609 21.1718C41.1964 18.2409 41.985 15.3452 41.9996 12.1855C41.9996 12.167 41.9996 12.1481 41.9999 12.1292ZM40.7328 16.4558C40.7217 16.4975 40.71 16.5388 40.6986 16.5805C40.3683 17.773 39.8737 19.045 39.1559 20.3993L31.6225 12.85C32.9718 12.1317 34.2397 11.6368 35.4279 11.3058C35.4727 11.2937 35.5175 11.2809 35.5623 11.2688C35.6502 11.2449 35.7373 11.2232 35.8244 11.2014C37.5644 10.771 39.3489 10.6264 41.2451 10.7568C41.3752 12.6548 41.2312 14.442 40.8024 16.1839C40.7797 16.2741 40.7573 16.3646 40.7328 16.4558ZM17.9995 20.0993L22.067 19.7897C21.3339 20.6038 20.642 21.4319 19.9952 22.2674C19.9942 22.2685 19.9928 22.2692 19.9917 22.2703C19.964 22.3059 19.9387 22.3415 19.9113 22.3771C19.703 22.6479 19.4982 22.9191 19.3001 23.1909C19.2603 23.2458 19.2226 23.3003 19.1832 23.3548C18.9962 23.6142 18.8113 23.8736 18.6342 24.133C18.5602 24.2413 18.4916 24.3486 18.4194 24.4565C18.2818 24.6625 18.1428 24.8687 18.012 25.0747C17.8619 25.3098 17.7215 25.5432 17.5811 25.7762L11.3003 25.2076L17.9995 20.0993ZM18.7135 25.2999C18.8017 25.1634 18.8938 25.0259 18.9855 24.8887C19.079 24.748 19.1736 24.6069 19.2703 24.4661C19.3901 24.2919 19.5124 24.117 19.6372 23.942C19.7041 23.8479 19.7723 23.7542 19.8402 23.6605C19.9874 23.4578 20.136 23.2551 20.29 23.052C20.296 23.0441 20.3024 23.0359 20.3085 23.0281L28.9992 31.7371C28.9893 31.7446 28.9793 31.7525 28.9694 31.7603C28.7706 31.9114 28.5722 32.0571 28.3738 32.2021C28.2767 32.273 28.1797 32.3436 28.0826 32.413C27.9105 32.5363 27.7388 32.6568 27.5678 32.775C27.4227 32.8752 27.2776 32.9728 27.1326 33.0693C27.0003 33.1581 26.8677 33.2475 26.7358 33.333C26.4506 33.5176 26.1655 33.6979 25.8817 33.8692L18.1805 26.1525C18.3508 25.8689 18.53 25.5846 18.7135 25.2999ZM21.9287 32.066C21.8182 32.7462 21.4455 33.4331 20.8795 34.0004C20.5528 34.3274 20.1887 34.5893 19.7993 34.7767C19.1572 35.0807 17.3674 35.8025 15.6365 36.5012L15.4979 36.5572L15.5423 36.4464C16.2442 34.6998 16.9699 32.8937 17.2735 32.2491C17.4616 31.8561 17.7229 31.4916 18.0493 31.1646C18.7554 30.457 19.6244 30.0764 20.3686 30.0764C20.8233 30.0764 21.2315 30.2182 21.5273 30.515C21.89 30.8777 22.0326 31.4282 21.9287 32.066ZM31.855 33.9843L26.7575 40.697L26.1996 34.5052C26.451 34.3542 26.7031 34.201 26.9569 34.0381C27.1571 33.9102 27.3573 33.7745 27.5575 33.6405C27.6709 33.5646 27.7836 33.4923 27.8974 33.4139C28.1495 33.2411 28.4012 33.0608 28.6529 32.8787C28.7155 32.8335 28.7777 32.7904 28.8403 32.7448C29.102 32.5534 29.3626 32.3553 29.6232 32.1544C29.6673 32.1205 29.7114 32.0888 29.7555 32.0546C29.7569 32.0535 29.7576 32.0514 29.759 32.0503C30.5658 31.4232 31.3665 30.7545 32.1537 30.0458L31.855 33.9843ZM33.4415 27.8439C32.1921 29.0959 30.8879 30.2553 29.567 31.2982L20.7462 22.4591C21.7869 21.1354 22.9438 19.8285 24.1936 18.5765C26.6476 16.1173 28.9043 14.3996 30.975 13.2092L38.7975 21.0481C37.6096 23.1232 35.8955 25.3847 33.4415 27.8439Z" fill="#331B3B"/>
</svg>
