<svg width="52" height="48" viewBox="0 0 52 48" fill="none" xmlns="http://www.w3.org/2000/svg">
<path d="M26 40C17.1776 40 10 32.8224 10 24C10 15.1776 17.1776 8 26 8C34.8224 8 42 15.1776 42 24C42 32.8224 34.8224 40 26 40ZM26.3556 29.7451C28.6588 29.782 30.8917 30.1753 32.9216 30.8821C33.4276 28.9116 33.723 26.6983 33.7504 24.3556H26.3556V29.7451ZM26.3556 30.4562V39.2711C29.0859 39.0268 31.4514 35.9851 32.7335 31.5691C30.7673 30.8786 28.5973 30.4932 26.3556 30.4562ZM25.6444 30.4562C23.4023 30.4932 21.2327 30.8786 19.2661 31.5694C20.5483 35.9851 22.9138 39.0268 25.6444 39.2711V30.4562ZM25.6444 29.7451V24.3556H18.2496C18.277 26.6983 18.5724 28.9116 19.0784 30.8821C21.1083 30.1753 23.3412 29.782 25.6444 29.7451ZM17.5385 24.3556H10.72C10.8004 27.8464 12.054 31.051 14.1042 33.5893C15.3522 32.5817 16.8135 31.7504 18.422 31.1225C17.8812 29.0763 17.5669 26.7819 17.5385 24.3556ZM17.5385 23.6444C17.5666 21.2181 17.8812 18.9237 18.422 16.8772C16.8139 16.2492 15.3522 15.418 14.1045 14.4103C12.054 16.949 10.8004 20.1536 10.72 23.6444H17.5385ZM18.2496 23.6444H25.6444V18.2553C23.3412 18.2183 21.1083 17.8247 19.0784 17.1179C18.5724 19.0884 18.277 21.3017 18.2496 23.6444ZM25.6444 17.5442V8.72889C22.9138 8.97316 20.5483 12.0149 19.2661 16.4309C21.2327 17.1214 23.4027 17.5068 25.6444 17.5442ZM26.3556 17.5442C28.5973 17.5072 30.7673 17.1218 32.7335 16.4313C31.4514 12.0149 29.0862 8.97316 26.3556 8.72889V17.5442ZM26.3556 18.2553V23.6444H33.7504C33.723 21.3017 33.4276 19.0884 32.9216 17.1179C30.8917 17.8247 28.6588 18.2183 26.3556 18.2553ZM34.4612 23.6444H41.28C41.1996 20.1536 39.946 16.949 37.8955 14.4103C36.6475 15.418 35.1861 16.2496 33.5776 16.8772C34.1184 18.9241 34.4331 21.2181 34.4612 23.6444ZM34.4612 24.3556C34.4331 26.7819 34.1184 29.0759 33.5776 31.1225C35.1861 31.7504 36.6475 32.5817 37.8955 33.5893C39.946 31.0507 41.1993 27.846 41.2796 24.3556H34.4612ZM37.4357 34.1319C36.2638 33.1879 34.8928 32.4068 33.3845 31.8108C32.4071 35.099 30.8338 37.6725 28.9422 39.002C32.2926 38.346 35.2533 36.5924 37.4357 34.1319ZM23.0578 39.002C21.1662 37.6725 19.5929 35.099 18.6155 31.8112C17.1072 32.4071 15.7362 33.1883 14.5643 34.1323C16.7463 36.5924 19.707 38.346 23.0578 39.002ZM14.5639 13.8681C15.7358 14.8121 17.1065 15.5932 18.6151 16.1892C19.5925 12.9013 21.1659 10.3278 23.0574 8.9984C19.707 9.65404 16.7463 11.4076 14.5639 13.8681ZM28.9422 8.99804C30.8338 10.3275 32.4071 12.901 33.3845 16.1892C34.8932 15.5932 36.2638 14.8121 37.4357 13.8681C35.2533 11.4076 32.293 9.65404 28.9422 8.99804Z" fill="black"/>
</svg>
